<?xml version="1.0" encoding="UTF-8"?>
<svg xmlns="http://www.w3.org/2000/svg" xmlns:xlink="http://www.w3.org/1999/xlink" width="100px" height="42px" viewBox="0 0 99 42" version="1.1">
<g id="surface1">
<path style=" stroke:none;fill-rule:nonzero;fill:rgb(99.607843%,99.607843%,99.607843%);fill-opacity:1;" d="M 0 0 C 32.671875 0 65.339844 0 99 0 C 99 13.859375 99 27.71875 99 42 C 66.328125 42 33.660156 42 0 42 C 0 28.140625 0 14.28125 0 0 Z M 0 0 "/>
<path style=" stroke:none;fill-rule:nonzero;fill:rgb(94.901961%,49.019608%,20.784314%);fill-opacity:1;" d="M 15.277344 0.0625 C 15.339844 0.0625 15.402344 0.0625 15.464844 0.0625 C 15.664062 0.0585938 15.859375 0.0585938 16.058594 0.0585938 C 16.125 0.0585938 16.195312 0.0585938 16.261719 0.0585938 C 17.304688 0.0585938 18.3125 0.105469 19.335938 0.3125 C 19.421875 0.328125 19.421875 0.328125 19.507812 0.34375 C 20.871094 0.613281 22.195312 1.082031 23.433594 1.71875 C 23.488281 1.742188 23.539062 1.769531 23.59375 1.796875 C 27.265625 3.640625 30.007812 6.851562 31.480469 10.695312 C 31.5 10.753906 31.523438 10.8125 31.546875 10.871094 C 32.089844 12.304688 32.410156 13.886719 32.425781 15.421875 C 32.425781 15.492188 32.425781 15.5625 32.429688 15.636719 C 32.453125 18.578125 32.453125 18.578125 32.097656 19.984375 C 32.078125 20.0625 32.058594 20.140625 32.039062 20.21875 C 31.765625 21.300781 31.402344 22.328125 30.9375 23.34375 C 30.914062 23.394531 30.890625 23.449219 30.863281 23.503906 C 30.214844 24.941406 29.296875 26.207031 28.242188 27.371094 C 28.089844 27.539062 27.945312 27.710938 27.800781 27.882812 C 27.527344 28.199219 27.234375 28.464844 26.914062 28.730469 C 26.855469 28.777344 26.855469 28.777344 26.796875 28.828125 C 23.34375 31.746094 19.039062 33.03125 14.5625 32.6875 C 10.292969 32.242188 6.292969 30.015625 3.582031 26.660156 C 3.414062 26.445312 3.253906 26.222656 3.09375 25.996094 C 3.0625 25.953125 3.03125 25.910156 3 25.863281 C 1.464844 23.726562 0.496094 21.191406 0.15625 18.578125 C 0.148438 18.527344 0.140625 18.472656 0.132812 18.417969 C -0.0859375 16.59375 -0.046875 14.585938 0.386719 12.804688 C 0.402344 12.734375 0.421875 12.664062 0.4375 12.589844 C 1.027344 10.21875 2.085938 7.976562 3.636719 6.089844 C 3.691406 6.019531 3.691406 6.019531 3.75 5.949219 C 4.363281 5.207031 4.984375 4.535156 5.734375 3.925781 C 5.875 3.8125 6.011719 3.699219 6.148438 3.578125 C 8.574219 1.476562 12.070312 0.0820312 15.277344 0.0625 Z M 15.277344 0.0625 "/>
<path style=" stroke:none;fill-rule:nonzero;fill:rgb(37.64706%,37.64706%,38.431373%);fill-opacity:1;" d="M 73.246094 11.476562 C 73.457031 11.640625 73.660156 11.808594 73.855469 11.992188 C 74.007812 12.117188 74.007812 12.117188 74.164062 12.082031 C 74.351562 12.015625 74.488281 11.925781 74.648438 11.808594 C 74.707031 11.765625 74.769531 11.722656 74.832031 11.679688 C 74.957031 11.589844 75.082031 11.5 75.207031 11.40625 C 75.265625 11.367188 75.324219 11.324219 75.386719 11.28125 C 75.46875 11.222656 75.46875 11.222656 75.554688 11.160156 C 75.769531 11.0625 75.882812 11.089844 76.105469 11.164062 C 76.273438 11.261719 76.433594 11.371094 76.59375 11.480469 C 76.71875 11.566406 76.71875 11.566406 76.84375 11.652344 C 76.90625 11.699219 76.96875 11.742188 77.035156 11.789062 C 76.980469 12.210938 76.851562 12.589844 76.710938 12.988281 C 76.097656 14.808594 75.757812 16.691406 75.410156 18.578125 C 75.394531 18.65625 75.382812 18.730469 75.367188 18.8125 C 74.972656 20.953125 74.585938 23.089844 74.347656 25.257812 C 74.058594 27.910156 73.449219 31.195312 71.34375 33.042969 C 68.953125 34.957031 65.515625 34.960938 62.625 34.640625 C 61.242188 34.46875 59.714844 34.246094 58.472656 33.570312 C 58.527344 33.175781 58.679688 32.824219 58.828125 32.457031 C 58.867188 32.355469 58.867188 32.355469 58.910156 32.25 C 58.996094 32.03125 59.085938 31.8125 59.171875 31.59375 C 59.230469 31.445312 59.292969 31.296875 59.351562 31.148438 C 59.496094 30.78125 59.640625 30.417969 59.785156 30.054688 C 60.070312 30.054688 60.152344 30.128906 60.386719 30.289062 C 62.148438 31.445312 64.117188 32.175781 66.25 31.894531 C 67.09375 31.710938 67.722656 31.230469 68.21875 30.523438 C 68.769531 29.546875 68.945312 28.277344 68.992188 27.167969 C 68.925781 27.207031 68.859375 27.25 68.792969 27.289062 C 67.460938 28.101562 65.914062 28.546875 64.351562 28.203125 C 64.109375 28.132812 63.882812 28.046875 63.652344 27.949219 C 63.589844 27.921875 63.523438 27.898438 63.453125 27.871094 C 62.097656 27.28125 61.175781 25.847656 60.636719 24.511719 C 60.511719 24.15625 60.414062 23.789062 60.328125 23.421875 C 60.316406 23.375 60.300781 23.328125 60.289062 23.28125 C 60.019531 21.992188 60.195312 20.371094 60.558594 19.125 C 60.574219 19.074219 60.589844 19.019531 60.605469 18.964844 C 60.707031 18.597656 60.820312 18.238281 60.945312 17.878906 C 60.996094 17.734375 60.996094 17.734375 61.042969 17.589844 C 61.628906 16.007812 62.585938 14.648438 63.730469 13.425781 C 63.789062 13.363281 63.847656 13.300781 63.90625 13.234375 C 66.253906 10.75 70.191406 9.597656 73.246094 11.476562 Z M 73.246094 11.476562 "/>
<path style=" stroke:none;fill-rule:nonzero;fill:rgb(37.64706%,37.64706%,38.431373%);fill-opacity:1;" d="M 47.179688 11.007812 C 47.257812 11.046875 47.332031 11.082031 47.414062 11.121094 C 48.816406 11.875 49.585938 13.191406 50.042969 14.675781 C 50.066406 14.757812 50.09375 14.839844 50.121094 14.925781 C 50.855469 17.675781 49.875 20.824219 48.527344 23.214844 C 48.242188 23.703125 47.917969 24.152344 47.566406 24.589844 C 47.535156 24.632812 47.5 24.671875 47.46875 24.714844 C 46.222656 26.265625 44.535156 28.019531 42.460938 28.261719 C 41.058594 28.359375 39.914062 28.179688 38.671875 27.480469 C 38.667969 27.550781 38.667969 27.550781 38.664062 27.621094 C 38.617188 28.242188 38.5 28.84375 38.378906 29.457031 C 38.050781 31.105469 37.855469 32.753906 37.667969 34.425781 C 35.855469 34.425781 34.042969 34.425781 32.175781 34.425781 C 32.75 31.78125 32.75 31.78125 32.964844 30.898438 C 33.460938 28.855469 33.789062 26.78125 34.144531 24.714844 C 34.308594 23.753906 34.480469 22.796875 34.660156 21.839844 C 34.703125 21.613281 34.746094 21.390625 34.789062 21.164062 C 34.898438 20.566406 35.011719 19.96875 35.125 19.371094 C 35.648438 16.617188 36.011719 13.867188 36.351562 11.085938 C 38.011719 11.085938 39.667969 11.085938 41.378906 11.085938 C 41.417969 11.550781 41.417969 11.550781 41.457031 12.023438 C 41.539062 11.941406 41.617188 11.859375 41.703125 11.777344 C 43.015625 10.628906 45.609375 10.191406 47.179688 11.007812 Z M 47.179688 11.007812 "/>
<path style=" stroke:none;fill-rule:nonzero;fill:rgb(99.607843%,99.607843%,98.823529%);fill-opacity:1;" d="M 26.066406 5.386719 C 26.140625 5.464844 26.140625 5.464844 26.152344 5.707031 C 26.140625 6 26.113281 6.28125 26.070312 6.570312 C 26.0625 6.625 26.054688 6.675781 26.046875 6.730469 C 26.019531 6.898438 25.992188 7.070312 25.96875 7.242188 C 25.949219 7.359375 25.933594 7.476562 25.914062 7.59375 C 25.878906 7.835938 25.84375 8.074219 25.808594 8.3125 C 25.730469 8.835938 25.652344 9.363281 25.578125 9.886719 C 25.550781 10.058594 25.527344 10.230469 25.5 10.40625 C 25.484375 10.511719 25.484375 10.511719 25.46875 10.621094 C 25.460938 10.671875 25.453125 10.722656 25.445312 10.773438 C 25.234375 10.671875 25.042969 10.558594 24.847656 10.429688 C 22.957031 9.183594 20.679688 7.761719 18.316406 8.160156 C 17.5625 8.335938 16.859375 8.605469 16.421875 9.28125 C 16.066406 9.851562 16.023438 10.425781 16.085938 11.085938 C 16.152344 11.308594 16.246094 11.457031 16.398438 11.632812 C 16.449219 11.695312 16.449219 11.695312 16.507812 11.757812 C 17.320312 12.570312 18.484375 13.003906 19.523438 13.425781 C 20.835938 13.964844 22.039062 14.53125 23.125 15.457031 C 23.183594 15.503906 23.242188 15.550781 23.304688 15.597656 C 24.1875 16.320312 24.902344 17.511719 25.058594 18.65625 C 25.164062 20.0625 24.96875 21.28125 24.363281 22.5625 C 24.332031 22.628906 24.296875 22.699219 24.265625 22.769531 C 23.3125 24.667969 21.566406 26.0625 19.722656 27.011719 C 19.652344 27.046875 19.578125 27.085938 19.503906 27.125 C 17.925781 27.894531 16.152344 28.265625 14.40625 28.277344 C 14.300781 28.277344 14.300781 28.277344 14.195312 28.277344 C 11.261719 28.296875 11.261719 28.296875 9.898438 28.027344 C 9.824219 28.011719 9.746094 27.996094 9.667969 27.980469 C 8.292969 27.707031 6.847656 27.296875 5.644531 26.542969 C 5.859375 25.414062 6.105469 24.292969 6.367188 23.175781 C 6.429688 22.902344 6.492188 22.632812 6.554688 22.359375 C 6.59375 22.1875 6.636719 22.011719 6.675781 21.839844 C 6.695312 21.757812 6.714844 21.675781 6.734375 21.59375 C 6.75 21.519531 6.769531 21.445312 6.785156 21.367188 C 6.808594 21.269531 6.808594 21.269531 6.832031 21.167969 C 6.882812 21 6.882812 21 7.039062 20.765625 C 7.078125 20.8125 7.117188 20.859375 7.15625 20.90625 C 8.660156 22.632812 10.703125 23.945312 12.992188 24.277344 C 14.539062 24.367188 16.035156 24.347656 17.285156 23.308594 C 17.679688 22.933594 17.910156 22.519531 17.960938 21.976562 C 17.976562 21.382812 17.902344 20.988281 17.503906 20.542969 C 17.03125 20.09375 16.515625 19.828125 15.933594 19.566406 C 15.046875 19.160156 14.21875 18.738281 13.445312 18.140625 C 13.289062 18.023438 13.125 17.90625 12.964844 17.789062 C 12.171875 17.226562 11.414062 16.632812 10.671875 16.003906 C 10.625 15.964844 10.578125 15.925781 10.53125 15.882812 C 9.679688 15.164062 9.117188 14.324219 8.972656 13.191406 C 8.84375 11.234375 9.578125 9.578125 10.828125 8.117188 C 14.503906 3.957031 21.164062 3.964844 26.066406 5.386719 Z M 26.066406 5.386719 "/>
<path style=" stroke:none;fill-rule:nonzero;fill:rgb(37.64706%,37.64706%,38.431373%);fill-opacity:1;" d="M 86.179688 10.582031 C 86.296875 10.582031 86.296875 10.582031 86.417969 10.582031 C 88.484375 10.558594 90.765625 10.820312 92.332031 12.316406 C 93.070312 13.0625 93.460938 13.824219 93.460938 14.90625 C 93.460938 15.84375 93.269531 16.75 93.097656 17.667969 C 93.0625 17.855469 93.03125 18.042969 92.996094 18.234375 C 92.90625 18.722656 92.816406 19.214844 92.722656 19.703125 C 92.613281 20.300781 92.503906 20.894531 92.394531 21.492188 C 92.308594 21.953125 92.222656 22.417969 92.136719 22.882812 C 92.121094 22.96875 92.105469 23.054688 92.089844 23.140625 C 92.0625 23.296875 92.03125 23.457031 92 23.613281 C 91.722656 25.136719 91.730469 26.421875 91.730469 28.027344 C 89.992188 28.027344 88.257812 28.027344 86.46875 28.027344 C 86.445312 27.613281 86.417969 27.203125 86.394531 26.777344 C 86.289062 26.839844 86.183594 26.902344 86.074219 26.96875 C 84.558594 27.863281 84.558594 27.863281 83.761719 28.105469 C 83.6875 28.128906 83.613281 28.152344 83.535156 28.179688 C 82.902344 28.351562 82.277344 28.363281 81.625 28.367188 C 81.539062 28.367188 81.453125 28.371094 81.363281 28.371094 C 80.195312 28.363281 79.144531 28.050781 78.28125 27.234375 C 77.492188 26.390625 77.210938 25.433594 77.242188 24.296875 C 77.347656 22.417969 78.5625 20.808594 79.894531 19.59375 C 82.101562 17.699219 85.386719 16.082031 88.328125 16.082031 C 88.304688 15.195312 88.238281 14.5 87.628906 13.816406 C 87.054688 13.429688 86.457031 13.253906 85.773438 13.191406 C 85.707031 13.1875 85.640625 13.179688 85.574219 13.171875 C 84.003906 13.097656 82.34375 13.910156 80.992188 14.632812 C 80.796875 14.730469 80.644531 14.785156 80.4375 14.832031 C 80.484375 14.347656 80.554688 13.875 80.640625 13.394531 C 80.652344 13.328125 80.664062 13.261719 80.675781 13.195312 C 80.714844 12.984375 80.753906 12.773438 80.789062 12.5625 C 80.816406 12.421875 80.84375 12.277344 80.867188 12.132812 C 80.929688 11.785156 80.992188 11.433594 81.054688 11.085938 C 82.773438 10.753906 84.433594 10.59375 86.179688 10.582031 Z M 86.179688 10.582031 "/>
<path style=" stroke:none;fill-rule:nonzero;fill:rgb(37.64706%,37.64706%,38.431373%);fill-opacity:1;" d="M 53.984375 11.085938 C 55.746094 11.085938 57.507812 11.085938 59.324219 11.085938 C 58.765625 14.285156 58.765625 14.285156 58.589844 15.300781 C 58.578125 15.363281 58.566406 15.429688 58.554688 15.496094 C 58.339844 16.730469 58.125 17.964844 57.90625 19.199219 C 57.890625 19.289062 57.875 19.375 57.859375 19.46875 C 57.703125 20.355469 57.542969 21.242188 57.375 22.128906 C 57.003906 24.089844 56.714844 26.046875 56.460938 28.027344 C 54.625 28.027344 52.785156 28.027344 50.890625 28.027344 C 51.027344 27.339844 51.164062 26.667969 51.332031 25.996094 C 51.375 25.835938 51.414062 25.675781 51.453125 25.519531 C 51.511719 25.277344 51.574219 25.035156 51.632812 24.792969 C 51.949219 23.539062 52.199219 22.273438 52.421875 21 C 52.535156 20.332031 52.660156 19.667969 52.785156 19.003906 C 52.867188 18.566406 52.949219 18.128906 53.03125 17.691406 C 53.097656 17.320312 53.167969 16.945312 53.238281 16.574219 C 53.6875 14.214844 53.6875 14.214844 53.894531 11.828125 C 53.914062 11.578125 53.949219 11.332031 53.984375 11.085938 Z M 53.984375 11.085938 "/>
<path style=" stroke:none;fill-rule:nonzero;fill:rgb(99.607843%,99.215686%,98.823529%);fill-opacity:1;" d="M 0 0 C 2.257812 0 4.515625 -0.00390625 6.773438 -0.00390625 C 7.042969 -0.00390625 7.308594 -0.00390625 7.574219 -0.00390625 C 7.628906 -0.00390625 7.679688 -0.00390625 7.734375 -0.00390625 C 8.59375 -0.00390625 9.453125 -0.00390625 10.3125 -0.0078125 C 11.195312 -0.0078125 12.078125 -0.0078125 12.960938 -0.0078125 C 13.453125 -0.0078125 13.949219 -0.0078125 14.445312 -0.0078125 C 14.910156 -0.0078125 15.378906 -0.0078125 15.84375 -0.0078125 C 16.015625 -0.0078125 16.1875 -0.0078125 16.355469 -0.0078125 C 16.589844 -0.0078125 16.824219 -0.0078125 17.058594 -0.0078125 C 17.125 -0.0078125 17.195312 -0.0117188 17.261719 -0.0117188 C 17.601562 -0.0078125 17.917969 0.0078125 18.253906 0.078125 C 18.253906 0.105469 18.253906 0.128906 18.253906 0.15625 C 18.152344 0.15625 18.054688 0.152344 17.949219 0.152344 C 15.296875 0.078125 15.296875 0.078125 12.683594 0.46875 C 12.605469 0.488281 12.53125 0.507812 12.449219 0.527344 C 9.875 1.1875 7.519531 2.40625 5.53125 4.1875 C 5.414062 4.292969 5.296875 4.398438 5.179688 4.5 C 2.769531 6.636719 1.214844 9.6875 0.464844 12.804688 C 0.449219 12.871094 0.429688 12.9375 0.414062 13.007812 C -0.0546875 15.035156 0 17.324219 0.363281 19.367188 C 0.394531 19.574219 0.394531 19.777344 0.386719 19.984375 C 0.335938 19.984375 0.285156 19.984375 0.230469 19.984375 C 0.226562 19.925781 0.222656 19.863281 0.21875 19.800781 C 0.210938 19.722656 0.203125 19.640625 0.199219 19.5625 C 0.1875 19.441406 0.1875 19.441406 0.179688 19.320312 C 0.175781 19.132812 0.175781 19.132812 0.078125 19.046875 C 0 18.5 -0.0117188 17.949219 -0.0078125 17.394531 C -0.0078125 17.320312 -0.0078125 17.246094 -0.0078125 17.167969 C -0.0078125 16.917969 -0.0078125 16.671875 -0.0078125 16.421875 C -0.0078125 16.242188 -0.0078125 16.0625 -0.0078125 15.882812 C -0.0078125 15.398438 -0.0078125 14.914062 -0.0078125 14.429688 C -0.0078125 13.921875 -0.0078125 13.414062 -0.0078125 12.90625 C -0.0078125 12.054688 -0.0078125 11.203125 -0.00390625 10.351562 C -0.00390625 9.476562 -0.00390625 8.601562 -0.00390625 7.722656 C -0.00390625 7.671875 -0.00390625 7.617188 -0.00390625 7.558594 C -0.00390625 7.289062 -0.00390625 7.015625 -0.00390625 6.746094 C -0.00390625 4.496094 0 2.25 0 0 Z M 0 0 "/>
<path style=" stroke:none;fill-rule:nonzero;fill:rgb(99.607843%,99.607843%,99.607843%);fill-opacity:1;" d="M 69.644531 13.171875 C 70.273438 13.21875 70.636719 13.550781 71.078125 13.972656 C 71.121094 14.007812 71.164062 14.042969 71.207031 14.078125 C 71.3125 14.207031 71.3125 14.207031 71.3125 14.375 C 71.300781 14.441406 71.285156 14.507812 71.273438 14.578125 C 71.257812 14.65625 71.242188 14.734375 71.226562 14.8125 C 71.210938 14.902344 71.191406 14.988281 71.171875 15.078125 C 71.144531 15.226562 71.117188 15.371094 71.089844 15.519531 C 71.070312 15.628906 71.050781 15.738281 71.027344 15.84375 C 70.894531 16.546875 70.773438 17.253906 70.648438 17.957031 C 70.5625 18.445312 70.476562 18.933594 70.390625 19.421875 C 70.316406 19.84375 70.242188 20.265625 70.167969 20.6875 C 70.09375 21.101562 70.023438 21.515625 69.949219 21.929688 C 69.921875 22.085938 69.894531 22.242188 69.867188 22.398438 C 69.828125 22.617188 69.789062 22.832031 69.75 23.050781 C 69.738281 23.113281 69.730469 23.175781 69.71875 23.242188 C 69.605469 23.863281 69.316406 24.269531 68.835938 24.667969 C 68.054688 25.167969 67.433594 25.285156 66.515625 25.214844 C 66.035156 25.09375 65.691406 24.777344 65.433594 24.355469 C 65.167969 23.832031 65.101562 23.324219 65.105469 22.742188 C 65.105469 22.679688 65.105469 22.613281 65.105469 22.546875 C 65.117188 21.820312 65.199219 21.105469 65.292969 20.386719 C 65.300781 20.316406 65.308594 20.25 65.320312 20.179688 C 65.449219 19.164062 65.59375 18.15625 65.898438 17.175781 C 65.914062 17.117188 65.929688 17.0625 65.949219 17.003906 C 66.308594 15.882812 66.835938 14.886719 67.675781 14.050781 C 67.714844 14.011719 67.753906 13.972656 67.796875 13.929688 C 68.324219 13.445312 68.945312 13.226562 69.644531 13.171875 Z M 69.644531 13.171875 "/>
<path style=" stroke:none;fill-rule:nonzero;fill:rgb(99.607843%,99.607843%,99.607843%);fill-opacity:1;" d="M 44.261719 13.867188 C 44.863281 14.355469 45.136719 15.097656 45.246094 15.847656 C 45.324219 17.203125 45.25 18.507812 44.9375 19.828125 C 44.921875 19.902344 44.902344 19.976562 44.886719 20.050781 C 44.488281 21.808594 43.929688 23.816406 42.460938 24.980469 C 41.71875 25.441406 40.953125 25.597656 40.085938 25.402344 C 39.699219 25.253906 39.492188 25.046875 39.285156 24.691406 C 39.15625 24.367188 39.226562 24.078125 39.296875 23.742188 C 39.3125 23.667969 39.324219 23.59375 39.339844 23.515625 C 39.386719 23.265625 39.433594 23.019531 39.484375 22.769531 C 39.515625 22.597656 39.550781 22.421875 39.582031 22.246094 C 39.652344 21.875 39.722656 21.5 39.796875 21.125 C 39.914062 20.511719 40.027344 19.894531 40.140625 19.277344 C 40.179688 19.070312 40.21875 18.859375 40.257812 18.652344 C 40.265625 18.601562 40.273438 18.550781 40.285156 18.496094 C 40.347656 18.144531 40.414062 17.792969 40.480469 17.445312 C 40.496094 17.351562 40.515625 17.253906 40.53125 17.15625 C 40.566406 16.984375 40.597656 16.808594 40.628906 16.632812 C 40.71875 16.152344 40.800781 15.667969 40.875 15.183594 C 40.980469 14.671875 41.421875 14.335938 41.835938 14.058594 C 42.5625 13.644531 43.496094 13.398438 44.261719 13.867188 Z M 44.261719 13.867188 "/>
<path style=" stroke:none;fill-rule:nonzero;fill:rgb(94.509804%,49.019608%,21.176471%);fill-opacity:1;" d="M 63.578125 0.078125 C 63.652344 0.117188 63.652344 0.117188 63.730469 0.15625 C 63.125 1.300781 62.511719 2.4375 61.875 3.566406 C 61.730469 3.828125 61.582031 4.089844 61.441406 4.355469 C 59.316406 8.316406 59.316406 8.316406 57.414062 8.949219 C 57.015625 9.066406 56.644531 9.09375 56.230469 9.089844 C 56.125 9.089844 56.125 9.089844 56.019531 9.089844 C 55.316406 9.074219 54.660156 8.929688 53.984375 8.742188 C 53.910156 8.449219 53.914062 8.246094 53.984375 7.949219 C 54.003906 7.871094 54.023438 7.796875 54.042969 7.714844 C 54.0625 7.636719 54.085938 7.554688 54.105469 7.46875 C 54.128906 7.386719 54.148438 7.304688 54.171875 7.214844 C 54.441406 6.1875 54.746094 5.234375 55.378906 4.371094 C 55.4375 4.289062 55.4375 4.289062 55.496094 4.207031 C 56.886719 2.4375 59.769531 1.707031 61.75 0.878906 C 61.867188 0.832031 61.980469 0.785156 62.097656 0.734375 C 62.152344 0.710938 62.207031 0.6875 62.261719 0.664062 C 62.65625 0.5 63.039062 0.324219 63.421875 0.136719 C 63.5 0.105469 63.5 0.105469 63.578125 0.078125 Z M 63.578125 0.078125 "/>
<path style=" stroke:none;fill-rule:nonzero;fill:rgb(99.607843%,99.607843%,99.607843%);fill-opacity:1;" d="M 87.941406 18.347656 C 88.058594 18.582031 87.984375 18.761719 87.9375 19.019531 C 87.921875 19.101562 87.921875 19.101562 87.90625 19.183594 C 87.875 19.359375 87.84375 19.535156 87.808594 19.714844 C 87.789062 19.835938 87.765625 19.957031 87.742188 20.082031 C 87.695312 20.339844 87.648438 20.597656 87.601562 20.855469 C 87.542969 21.1875 87.480469 21.515625 87.421875 21.847656 C 87.375 22.101562 87.328125 22.355469 87.28125 22.609375 C 87.261719 22.730469 87.238281 22.851562 87.214844 22.972656 C 87.1875 23.144531 87.15625 23.316406 87.121094 23.484375 C 87.105469 23.582031 87.085938 23.679688 87.070312 23.777344 C 86.921875 24.460938 86.921875 24.460938 86.640625 24.683594 C 86.550781 24.738281 86.460938 24.785156 86.367188 24.835938 C 86.320312 24.863281 86.273438 24.886719 86.222656 24.914062 C 85.347656 25.378906 84.429688 25.625 83.445312 25.394531 C 82.851562 25.195312 82.453125 24.929688 82.148438 24.371094 C 81.890625 23.800781 81.9375 23.351562 82.132812 22.765625 C 82.925781 20.828125 84.957031 19.851562 86.703125 18.96875 C 86.832031 18.90625 86.960938 18.839844 87.089844 18.773438 C 87.375 18.628906 87.65625 18.488281 87.941406 18.347656 Z M 87.941406 18.347656 "/>
<path style=" stroke:none;fill-rule:nonzero;fill:rgb(38.039216%,38.039216%,38.82353%);fill-opacity:1;" d="M 8.042969 35.519531 C 8.578125 35.519531 9.117188 35.519531 9.667969 35.519531 C 9.867188 37.183594 10.050781 38.847656 10.210938 40.515625 C 10.242188 40.433594 10.242188 40.433594 10.277344 40.347656 C 10.519531 39.75 10.785156 39.175781 11.074219 38.601562 C 11.117188 38.511719 11.160156 38.421875 11.207031 38.332031 C 11.324219 38.097656 11.4375 37.867188 11.554688 37.632812 C 11.671875 37.394531 11.792969 37.15625 11.910156 36.917969 C 12.144531 36.453125 12.375 35.984375 12.605469 35.519531 C 13.144531 35.519531 13.679688 35.519531 14.230469 35.519531 C 13.84375 37.632812 13.425781 39.738281 12.992188 41.84375 C 12.660156 41.84375 12.332031 41.84375 11.988281 41.84375 C 12.039062 41.300781 12.132812 40.773438 12.242188 40.242188 C 12.257812 40.15625 12.277344 40.074219 12.292969 39.988281 C 12.347656 39.722656 12.402344 39.460938 12.457031 39.195312 C 12.511719 38.929688 12.566406 38.660156 12.621094 38.394531 C 12.65625 38.230469 12.6875 38.0625 12.722656 37.898438 C 12.738281 37.824219 12.753906 37.75 12.769531 37.671875 C 12.78125 37.609375 12.796875 37.542969 12.808594 37.476562 C 12.84375 37.316406 12.84375 37.316406 12.839844 37.160156 C 12.816406 37.210938 12.789062 37.261719 12.765625 37.316406 C 12.042969 38.855469 11.277344 40.363281 10.441406 41.84375 C 10.058594 41.84375 9.675781 41.84375 9.28125 41.84375 C 9.214844 41.3125 9.152344 40.78125 9.085938 40.25 C 9.066406 40.066406 9.042969 39.886719 9.019531 39.707031 C 8.988281 39.445312 8.957031 39.183594 8.925781 38.925781 C 8.917969 38.84375 8.90625 38.765625 8.898438 38.679688 C 8.839844 38.226562 8.789062 37.773438 8.738281 37.316406 C 8.730469 37.371094 8.71875 37.421875 8.707031 37.476562 C 8.609375 37.980469 8.511719 38.480469 8.410156 38.984375 C 8.359375 39.242188 8.308594 39.5 8.257812 39.757812 C 8.199219 40.054688 8.140625 40.351562 8.082031 40.648438 C 8.066406 40.742188 8.046875 40.832031 8.027344 40.929688 C 8.011719 41.015625 7.992188 41.101562 7.976562 41.1875 C 7.960938 41.265625 7.945312 41.339844 7.929688 41.417969 C 7.890625 41.609375 7.890625 41.609375 7.8125 41.84375 C 7.480469 41.84375 7.148438 41.84375 6.804688 41.84375 C 7.066406 40.390625 7.347656 38.941406 7.640625 37.496094 C 7.683594 37.304688 7.722656 37.109375 7.761719 36.917969 C 7.855469 36.449219 7.949219 35.984375 8.042969 35.519531 Z M 8.042969 35.519531 "/>
<path style=" stroke:none;fill-rule:nonzero;fill:rgb(38.431373%,38.431373%,38.82353%);fill-opacity:1;" d="M 51.738281 35.277344 C 51.878906 35.28125 51.878906 35.28125 52.019531 35.28125 C 52.15625 35.28125 52.15625 35.28125 52.300781 35.285156 C 52.371094 35.285156 52.441406 35.285156 52.515625 35.285156 C 52.46875 35.976562 52.332031 36.648438 52.199219 37.328125 C 52.171875 37.449219 52.148438 37.570312 52.125 37.691406 C 52.0625 38.003906 52 38.320312 51.9375 38.636719 C 51.882812 38.894531 51.832031 39.152344 51.78125 39.410156 C 51.722656 39.71875 51.660156 40.023438 51.597656 40.332031 C 51.585938 40.390625 51.574219 40.449219 51.5625 40.511719 C 51.53125 40.675781 51.496094 40.839844 51.464844 41.007812 C 51.445312 41.101562 51.425781 41.195312 51.40625 41.292969 C 51.367188 41.476562 51.324219 41.660156 51.277344 41.84375 C 50.945312 41.84375 50.617188 41.84375 50.273438 41.84375 C 50.300781 41.613281 50.324219 41.378906 50.351562 41.140625 C 50.277344 41.226562 50.199219 41.308594 50.125 41.394531 C 49.71875 41.800781 49.296875 42.011719 48.722656 42.035156 C 48.28125 42.011719 47.898438 41.953125 47.582031 41.621094 C 47.074219 40.964844 47.128906 40.222656 47.179688 39.421875 C 47.324219 38.457031 47.804688 37.539062 48.589844 36.953125 C 49.117188 36.640625 49.675781 36.601562 50.273438 36.691406 C 50.589844 36.847656 50.757812 37.035156 50.96875 37.316406 C 51.019531 37.339844 51.070312 37.367188 51.125 37.394531 C 51.121094 37.28125 51.121094 37.28125 51.113281 37.167969 C 51.113281 36.792969 51.195312 36.441406 51.273438 36.078125 C 51.289062 36.007812 51.300781 35.941406 51.316406 35.871094 C 51.441406 35.289062 51.441406 35.289062 51.738281 35.277344 Z M 51.738281 35.277344 "/>
<path style=" stroke:none;fill-rule:nonzero;fill:rgb(38.431373%,38.431373%,38.82353%);fill-opacity:1;" d="M 26.683594 35.285156 C 27.039062 35.285156 27.398438 35.285156 27.765625 35.285156 C 27.65625 36.046875 27.523438 36.796875 27.378906 37.550781 C 27.425781 37.488281 27.46875 37.429688 27.515625 37.367188 C 27.671875 37.179688 27.796875 37.070312 28.003906 36.945312 C 28.054688 36.914062 28.105469 36.882812 28.160156 36.847656 C 28.648438 36.585938 29.296875 36.617188 29.816406 36.773438 C 30.136719 37.023438 30.34375 37.320312 30.472656 37.707031 C 30.570312 39.019531 30.34375 40.175781 29.496094 41.222656 C 29.082031 41.671875 28.578125 41.957031 27.96875 42.019531 C 27.523438 42.03125 27.265625 41.996094 26.914062 41.6875 C 26.761719 41.511719 26.632812 41.351562 26.527344 41.140625 C 26.476562 41.375 26.425781 41.605469 26.375 41.84375 C 26.066406 41.84375 25.761719 41.84375 25.445312 41.84375 C 25.492188 41.097656 25.613281 40.378906 25.765625 39.644531 C 25.789062 39.527344 25.8125 39.40625 25.835938 39.289062 C 25.886719 39.042969 25.9375 38.792969 25.988281 38.546875 C 26.050781 38.230469 26.117188 37.914062 26.179688 37.597656 C 26.242188 37.296875 26.304688 36.992188 26.363281 36.6875 C 26.375 36.632812 26.386719 36.574219 26.398438 36.515625 C 26.433594 36.351562 26.464844 36.1875 26.5 36.027344 C 26.527344 35.886719 26.527344 35.886719 26.554688 35.746094 C 26.605469 35.519531 26.605469 35.519531 26.683594 35.285156 Z M 26.683594 35.285156 "/>
<path style=" stroke:none;fill-rule:nonzero;fill:rgb(38.431373%,38.431373%,38.82353%);fill-opacity:1;" d="M 65.984375 36.894531 C 66.300781 37.132812 66.457031 37.449219 66.578125 37.824219 C 66.617188 38.339844 66.582031 38.796875 66.460938 39.296875 C 66.449219 39.355469 66.433594 39.414062 66.421875 39.472656 C 66.191406 40.375 65.769531 41.035156 65.0625 41.640625 C 64.40625 41.976562 63.644531 42.140625 62.921875 41.949219 C 62.496094 41.78125 62.1875 41.535156 61.953125 41.140625 C 61.800781 40.773438 61.769531 40.433594 61.773438 40.039062 C 61.773438 39.980469 61.773438 39.921875 61.773438 39.863281 C 61.792969 38.945312 62.039062 38.03125 62.652344 37.332031 C 63.488281 36.570312 64.964844 36.390625 65.984375 36.894531 Z M 65.984375 36.894531 "/>
<path style=" stroke:none;fill-rule:nonzero;fill:rgb(38.431373%,38.431373%,39.215687%);fill-opacity:1;" d="M 56.667969 36.816406 C 57.039062 37.054688 57.292969 37.347656 57.414062 37.773438 C 57.546875 38.46875 57.410156 38.945312 57.234375 39.65625 C 56.136719 39.683594 55.039062 39.710938 53.910156 39.734375 C 53.910156 40.230469 53.914062 40.59375 54.269531 40.960938 C 54.675781 41.191406 55.328125 41.121094 55.78125 41.027344 C 56.164062 40.875 56.511719 40.597656 56.847656 40.359375 C 56.835938 40.472656 56.824219 40.585938 56.8125 40.695312 C 56.808594 40.757812 56.800781 40.820312 56.792969 40.886719 C 56.757812 41.148438 56.730469 41.269531 56.519531 41.433594 C 55.71875 41.949219 55.101562 42.089844 54.140625 42 C 53.582031 41.855469 53.269531 41.574219 52.972656 41.078125 C 52.636719 40.265625 52.84375 39.246094 53.164062 38.460938 C 53.539062 37.667969 53.996094 37.101562 54.820312 36.757812 C 55.375 36.609375 56.140625 36.574219 56.667969 36.816406 Z M 56.667969 36.816406 "/>
<path style=" stroke:none;fill-rule:nonzero;fill:rgb(38.039216%,38.039216%,38.82353%);fill-opacity:1;" d="M 37.648438 36.8125 C 37.96875 37.019531 38.210938 37.324219 38.332031 37.691406 C 38.375 37.921875 38.378906 38.148438 38.382812 38.382812 C 38.382812 38.476562 38.386719 38.566406 38.386719 38.660156 C 38.363281 38.957031 38.363281 38.957031 38.128906 39.65625 C 37.03125 39.65625 35.933594 39.65625 34.804688 39.65625 C 34.832031 40.433594 34.832031 40.433594 35.191406 40.984375 C 35.761719 41.175781 36.480469 41.15625 37.019531 40.886719 C 37.277344 40.734375 37.519531 40.5625 37.742188 40.359375 C 37.765625 41.089844 37.765625 41.089844 37.554688 41.371094 C 36.835938 41.941406 36.007812 42.089844 35.113281 42 C 34.589844 41.890625 34.273438 41.617188 33.972656 41.175781 C 33.621094 40.484375 33.746094 39.507812 33.949219 38.789062 C 34.289062 37.855469 34.796875 37.203125 35.691406 36.777344 C 36.292969 36.585938 37.058594 36.554688 37.648438 36.8125 Z M 37.648438 36.8125 "/>
<path style=" stroke:none;fill-rule:nonzero;fill:rgb(38.431373%,38.431373%,39.215687%);fill-opacity:1;" d="M 23.074219 36.671875 C 23.128906 36.671875 23.1875 36.667969 23.246094 36.667969 C 23.691406 36.664062 24.011719 36.746094 24.351562 37.054688 C 24.386719 37.097656 24.421875 37.144531 24.460938 37.1875 C 24.496094 37.234375 24.535156 37.277344 24.574219 37.324219 C 24.910156 37.824219 24.878906 38.367188 24.796875 38.945312 C 24.699219 39.449219 24.699219 39.449219 24.59375 39.65625 C 23.496094 39.65625 22.398438 39.65625 21.269531 39.65625 C 21.261719 40.292969 21.261719 40.292969 21.5 40.828125 C 21.957031 41.183594 22.503906 41.117188 23.046875 41.0625 C 23.285156 40.992188 23.464844 40.894531 23.667969 40.75 C 23.746094 40.699219 23.746094 40.699219 23.824219 40.644531 C 23.953125 40.550781 24.082031 40.457031 24.207031 40.359375 C 24.199219 40.472656 24.191406 40.582031 24.179688 40.691406 C 24.171875 40.785156 24.171875 40.785156 24.164062 40.878906 C 24.113281 41.167969 24.046875 41.320312 23.8125 41.503906 C 23.054688 41.957031 22.386719 42.097656 21.5 42 C 20.945312 41.832031 20.625 41.566406 20.339844 41.0625 C 20.066406 40.230469 20.222656 39.113281 20.574219 38.332031 C 21.117188 37.296875 21.898438 36.679688 23.074219 36.671875 Z M 23.074219 36.671875 "/>
<path style=" stroke:none;fill-rule:nonzero;fill:rgb(38.431373%,38.431373%,38.82353%);fill-opacity:1;" d="M 91.023438 36.824219 C 91.324219 37.046875 91.472656 37.234375 91.53125 37.613281 C 91.53125 38.46875 91.367188 39.269531 91.191406 40.101562 C 91.164062 40.246094 91.132812 40.390625 91.105469 40.53125 C 90.898438 41.554688 90.898438 41.554688 90.800781 41.84375 C 90.496094 41.84375 90.1875 41.84375 89.875 41.84375 C 89.898438 41.636719 89.925781 41.433594 89.949219 41.21875 C 89.839844 41.324219 89.839844 41.324219 89.722656 41.433594 C 89.21875 41.867188 88.730469 42.058594 88.0625 42.03125 C 87.675781 41.972656 87.433594 41.8125 87.171875 41.523438 C 87.007812 41.074219 87.019531 40.617188 87.214844 40.179688 C 87.632812 39.445312 88.417969 39.214844 89.1875 39.007812 C 89.332031 38.96875 89.472656 38.929688 89.617188 38.894531 C 89.6875 38.875 89.757812 38.855469 89.828125 38.835938 C 89.890625 38.820312 89.953125 38.800781 90.019531 38.785156 C 90.203125 38.714844 90.292969 38.644531 90.414062 38.488281 C 90.492188 38.214844 90.492188 38.214844 90.492188 37.941406 C 90.371094 37.773438 90.292969 37.714844 90.09375 37.65625 C 89.238281 37.566406 88.648438 37.871094 87.941406 38.332031 C 87.890625 38.355469 87.835938 38.382812 87.785156 38.410156 C 87.789062 37.640625 87.789062 37.640625 88.050781 37.324219 C 88.175781 37.242188 88.175781 37.242188 88.328125 37.160156 C 88.390625 37.125 88.453125 37.089844 88.519531 37.054688 C 89.25 36.671875 90.234375 36.453125 91.023438 36.824219 Z M 91.023438 36.824219 "/>
<path style=" stroke:none;fill-rule:nonzero;fill:rgb(98.039216%,98.039216%,98.039216%);fill-opacity:1;" d="M 97.746094 10.742188 C 98.320312 11.042969 98.691406 11.40625 98.921875 12.023438 C 99.078125 12.550781 99.074219 13.09375 98.851562 13.597656 C 98.585938 14.078125 98.203125 14.480469 97.695312 14.691406 C 97.03125 14.863281 96.359375 14.835938 95.761719 14.484375 C 95.273438 14.125 94.988281 13.675781 94.859375 13.078125 C 94.765625 12.414062 94.933594 11.90625 95.257812 11.335938 C 95.945312 10.695312 96.84375 10.367188 97.746094 10.742188 Z M 97.746094 10.742188 "/>
<path style=" stroke:none;fill-rule:nonzero;fill:rgb(38.431373%,38.431373%,38.82353%);fill-opacity:1;" d="M 15.3125 36.769531 C 15.671875 36.769531 16.027344 36.769531 16.398438 36.769531 C 16.339844 37.457031 16.191406 38.121094 16.050781 38.792969 C 15.8125 39.8125 15.8125 39.8125 15.933594 40.828125 C 16.203125 41.027344 16.460938 41.019531 16.785156 40.984375 C 17.1875 40.84375 17.488281 40.660156 17.710938 40.28125 C 17.972656 39.601562 18.089844 38.890625 18.222656 38.175781 C 18.261719 37.984375 18.296875 37.796875 18.332031 37.605469 C 18.355469 37.488281 18.378906 37.371094 18.398438 37.253906 C 18.476562 36.855469 18.476562 36.855469 18.5625 36.769531 C 18.746094 36.765625 18.925781 36.761719 19.109375 36.765625 C 19.207031 36.765625 19.308594 36.765625 19.410156 36.765625 C 19.488281 36.769531 19.566406 36.769531 19.644531 36.769531 C 19.328125 38.464844 18.984375 40.15625 18.640625 41.84375 C 18.308594 41.84375 17.976562 41.84375 17.632812 41.84375 C 17.65625 41.6875 17.675781 41.527344 17.695312 41.371094 C 17.714844 41.21875 17.714844 41.21875 17.710938 41.0625 C 17.675781 41.105469 17.636719 41.144531 17.601562 41.1875 C 17.132812 41.691406 16.703125 42.007812 16.003906 42.035156 C 15.644531 42.015625 15.316406 41.960938 15.003906 41.765625 C 14.632812 41.3125 14.585938 40.933594 14.617188 40.359375 C 14.65625 40.074219 14.714844 39.796875 14.769531 39.515625 C 14.785156 39.433594 14.800781 39.355469 14.816406 39.273438 C 14.867188 39.023438 14.917969 38.777344 14.964844 38.527344 C 15 38.355469 15.03125 38.1875 15.066406 38.015625 C 15.148438 37.601562 15.230469 37.183594 15.3125 36.769531 Z M 15.3125 36.769531 "/>
<path style=" stroke:none;fill-rule:nonzero;fill:rgb(38.431373%,38.431373%,38.82353%);fill-opacity:1;" d="M 84.984375 36.671875 C 85.078125 36.667969 85.171875 36.667969 85.269531 36.664062 C 85.675781 36.703125 85.921875 36.828125 86.191406 37.140625 C 86.640625 38.070312 86.1875 39.347656 85.976562 40.292969 C 85.886719 40.710938 85.816406 41.128906 85.742188 41.550781 C 85.695312 41.765625 85.695312 41.765625 85.621094 41.84375 C 85.449219 41.847656 85.28125 41.851562 85.113281 41.847656 C 84.972656 41.847656 84.972656 41.847656 84.832031 41.847656 C 84.722656 41.84375 84.722656 41.84375 84.613281 41.84375 C 84.601562 41.445312 84.644531 41.085938 84.734375 40.703125 C 84.757812 40.589844 84.78125 40.476562 84.804688 40.363281 C 84.84375 40.1875 84.886719 40.015625 84.925781 39.839844 C 84.960938 39.667969 85 39.496094 85.035156 39.328125 C 85.050781 39.273438 85.0625 39.222656 85.074219 39.171875 C 85.164062 38.757812 85.234375 38.3125 85.085938 37.90625 C 85.007812 37.773438 85.007812 37.773438 84.847656 37.707031 C 84.363281 37.644531 84.007812 37.695312 83.59375 37.949219 C 83.128906 38.4375 83.039062 39.113281 82.90625 39.75 C 82.871094 39.929688 82.832031 40.109375 82.792969 40.289062 C 82.777344 40.378906 82.757812 40.46875 82.738281 40.558594 C 82.648438 40.988281 82.546875 41.414062 82.449219 41.84375 C 82.089844 41.84375 81.734375 41.84375 81.367188 41.84375 C 81.519531 40.847656 81.707031 39.863281 81.910156 38.878906 C 81.957031 38.644531 82.003906 38.410156 82.050781 38.175781 C 82.082031 38.027344 82.113281 37.878906 82.140625 37.730469 C 82.15625 37.660156 82.171875 37.589844 82.183594 37.519531 C 82.199219 37.453125 82.210938 37.390625 82.226562 37.324219 C 82.234375 37.265625 82.246094 37.210938 82.257812 37.152344 C 82.292969 37.003906 82.292969 37.003906 82.371094 36.769531 C 82.703125 36.769531 83.035156 36.769531 83.375 36.769531 C 83.324219 37.078125 83.273438 37.386719 83.222656 37.707031 C 83.300781 37.609375 83.382812 37.511719 83.464844 37.414062 C 83.910156 36.898438 84.292969 36.679688 84.984375 36.671875 Z M 84.984375 36.671875 "/>
<path style=" stroke:none;fill-rule:nonzero;fill:rgb(38.039216%,38.039216%,38.82353%);fill-opacity:1;" d="M 71.699219 35.597656 C 71.6875 35.710938 71.679688 35.824219 71.667969 35.933594 C 71.664062 35.996094 71.65625 36.058594 71.652344 36.125 C 71.621094 36.300781 71.621094 36.300781 71.464844 36.535156 C 71.40625 36.496094 71.347656 36.457031 71.285156 36.417969 C 70.898438 36.257812 70.5625 36.246094 70.152344 36.300781 C 69.875 36.425781 69.796875 36.542969 69.675781 36.816406 C 69.59375 37.035156 69.523438 37.25 69.453125 37.472656 C 69.429688 37.550781 69.402344 37.625 69.378906 37.707031 C 69.988281 37.707031 70.601562 37.707031 71.234375 37.707031 C 71.15625 38.488281 71.15625 38.488281 71.078125 38.566406 C 70.945312 38.570312 70.816406 38.574219 70.683594 38.574219 C 70.601562 38.574219 70.523438 38.570312 70.441406 38.570312 C 70.355469 38.570312 70.269531 38.570312 70.183594 38.570312 C 70.058594 38.570312 70.058594 38.570312 69.929688 38.570312 C 69.71875 38.566406 69.507812 38.566406 69.300781 38.566406 C 69.292969 38.625 69.285156 38.683594 69.273438 38.746094 C 69.175781 39.425781 69.046875 40.101562 68.902344 40.773438 C 68.882812 40.878906 68.859375 40.984375 68.839844 41.089844 C 68.785156 41.339844 68.734375 41.59375 68.679688 41.84375 C 68.324219 41.84375 67.964844 41.84375 67.597656 41.84375 C 67.707031 41.101562 67.839844 40.367188 67.996094 39.632812 C 68.015625 39.527344 68.039062 39.425781 68.058594 39.320312 C 68.113281 39.070312 68.164062 38.816406 68.21875 38.566406 C 67.988281 38.566406 67.757812 38.566406 67.519531 38.566406 C 67.53125 38.4375 67.542969 38.308594 67.554688 38.179688 C 67.5625 38.074219 67.5625 38.074219 67.574219 37.960938 C 67.597656 37.785156 67.597656 37.785156 67.675781 37.707031 C 67.804688 37.699219 67.9375 37.699219 68.066406 37.703125 C 68.136719 37.703125 68.210938 37.703125 68.28125 37.703125 C 68.335938 37.703125 68.394531 37.707031 68.449219 37.707031 C 68.445312 37.632812 68.441406 37.558594 68.433594 37.480469 C 68.4375 36.890625 68.636719 36.351562 69.003906 35.890625 C 69.703125 35.207031 70.871094 35.050781 71.699219 35.597656 Z M 71.699219 35.597656 "/>
<path style=" stroke:none;fill-rule:nonzero;fill:rgb(38.431373%,38.431373%,39.215687%);fill-opacity:1;" d="M 41.566406 36.65625 C 41.652344 36.65625 41.652344 36.65625 41.742188 36.660156 C 42.257812 36.671875 42.625 36.777344 43.003906 37.160156 C 42.984375 37.398438 42.984375 37.398438 42.933594 37.675781 C 42.917969 37.769531 42.902344 37.863281 42.886719 37.957031 C 42.875 38.03125 42.863281 38.101562 42.847656 38.175781 C 42.652344 38.078125 42.488281 37.980469 42.308594 37.851562 C 41.921875 37.628906 41.5 37.65625 41.070312 37.707031 C 40.730469 37.824219 40.730469 37.824219 40.527344 38.097656 C 40.523438 38.203125 40.523438 38.3125 40.523438 38.417969 C 40.523438 38.519531 40.527344 38.617188 40.527344 38.722656 C 40.613281 38.742188 40.695312 38.761719 40.78125 38.78125 C 40.894531 38.808594 41.007812 38.835938 41.117188 38.863281 C 41.171875 38.875 41.226562 38.886719 41.285156 38.902344 C 41.804688 39.03125 42.246094 39.175781 42.539062 39.65625 C 42.703125 40.175781 42.527344 40.59375 42.308594 41.0625 C 41.980469 41.585938 41.480469 41.808594 40.914062 42 C 40.199219 42.054688 39.652344 42.046875 39.082031 41.578125 C 38.980469 41.453125 38.980469 41.453125 38.996094 41.144531 C 39.035156 40.914062 39.085938 40.71875 39.214844 40.515625 C 39.28125 40.578125 39.351562 40.640625 39.421875 40.703125 C 39.816406 41.027344 40.140625 41.09375 40.648438 41.082031 C 40.90625 41.054688 41.085938 40.976562 41.300781 40.828125 C 41.488281 40.542969 41.46875 40.382812 41.457031 40.046875 C 41.414062 40.035156 41.371094 40.023438 41.328125 40.011719 C 41.136719 39.953125 40.941406 39.898438 40.75 39.839844 C 40.683594 39.820312 40.617188 39.800781 40.550781 39.78125 C 40.125 39.648438 39.839844 39.507812 39.523438 39.191406 C 39.34375 38.824219 39.390625 38.300781 39.492188 37.914062 C 39.71875 37.398438 40.136719 37.050781 40.625 36.796875 C 40.953125 36.675781 41.222656 36.652344 41.566406 36.65625 Z M 41.566406 36.65625 "/>
<path style=" stroke:none;fill-rule:nonzero;fill:rgb(38.431373%,38.431373%,39.215687%);fill-opacity:1;" d="M 78.03125 36.828125 C 78.25 36.988281 78.371094 37.082031 78.503906 37.316406 C 78.5 37.542969 78.5 37.542969 78.449219 37.789062 C 78.429688 37.910156 78.429688 37.910156 78.40625 38.035156 C 78.347656 38.253906 78.347656 38.253906 78.195312 38.488281 C 78.152344 38.414062 78.113281 38.34375 78.070312 38.265625 C 77.859375 37.984375 77.753906 37.894531 77.421875 37.785156 C 76.9375 37.730469 76.519531 37.730469 76.105469 38.019531 C 75.675781 38.371094 75.480469 38.816406 75.351562 39.351562 C 75.304688 39.902344 75.300781 40.265625 75.566406 40.75 C 75.816406 40.996094 76.011719 41.019531 76.359375 41.023438 C 76.84375 41.011719 77.128906 40.90625 77.5 40.59375 C 77.542969 40.558594 77.589844 40.519531 77.640625 40.480469 C 77.75 40.390625 77.855469 40.296875 77.960938 40.203125 C 77.835938 41.25 77.835938 41.25 77.5 41.53125 C 76.78125 41.953125 76.058594 42.164062 75.222656 41.953125 C 74.808594 41.769531 74.539062 41.460938 74.328125 41.0625 C 74.097656 40.421875 74.136719 39.765625 74.304688 39.117188 C 74.316406 39.0625 74.332031 39.007812 74.34375 38.953125 C 74.460938 38.519531 74.609375 38.148438 74.867188 37.785156 C 74.90625 37.730469 74.941406 37.675781 74.980469 37.621094 C 75.671875 36.71875 76.976562 36.339844 78.03125 36.828125 Z M 78.03125 36.828125 "/>
<path style=" stroke:none;fill-rule:nonzero;fill:rgb(38.039216%,38.039216%,38.82353%);fill-opacity:1;" d="M 50.492188 36.800781 C 50.671875 36.933594 50.738281 37.03125 50.816406 37.238281 C 50.738281 37.265625 50.660156 37.289062 50.582031 37.316406 C 50.488281 37.550781 50.488281 37.550781 50.429688 37.785156 C 50.328125 37.777344 50.328125 37.777344 50.230469 37.769531 C 49.539062 37.742188 49.539062 37.742188 48.929688 38.039062 C 48.449219 38.550781 48.269531 39.289062 48.238281 39.980469 C 48.265625 40.328125 48.332031 40.523438 48.496094 40.828125 C 48.753906 41.003906 48.84375 41.003906 49.148438 41 C 49.21875 41 49.292969 41 49.371094 41 C 49.554688 40.988281 49.710938 40.960938 49.886719 40.90625 C 49.871094 40.964844 49.855469 41.027344 49.839844 41.085938 C 49.785156 41.316406 49.785156 41.316406 49.964844 41.53125 C 49.867188 41.59375 49.769531 41.660156 49.667969 41.722656 C 49.613281 41.757812 49.558594 41.792969 49.503906 41.828125 C 49.09375 42.070312 48.625 42.050781 48.167969 41.96875 C 47.722656 41.835938 47.480469 41.546875 47.257812 41.140625 C 46.953125 40.109375 47.191406 38.902344 47.683594 37.972656 C 48.265625 37.023438 49.355469 36.238281 50.492188 36.800781 Z M 50.492188 36.800781 "/>
<path style=" stroke:none;fill-rule:nonzero;fill:rgb(99.215686%,99.215686%,99.215686%);fill-opacity:1;" d="M 64.433594 37.675781 C 64.570312 37.675781 64.570312 37.675781 64.710938 37.675781 C 64.988281 37.707031 65.132812 37.769531 65.355469 37.941406 C 65.632812 38.363281 65.558594 38.921875 65.472656 39.40625 C 65.292969 40.074219 64.984375 40.582031 64.425781 40.984375 C 64.070312 41.105469 63.71875 41.101562 63.34375 41.0625 C 63.058594 40.898438 62.917969 40.742188 62.804688 40.4375 C 62.785156 40.238281 62.773438 40.050781 62.773438 39.847656 C 62.773438 39.792969 62.773438 39.738281 62.773438 39.679688 C 62.789062 39.085938 62.945312 38.601562 63.257812 38.097656 C 63.613281 37.757812 63.953125 37.675781 64.433594 37.675781 Z M 64.433594 37.675781 "/>
<path style=" stroke:none;fill-rule:nonzero;fill:rgb(38.039216%,38.039216%,38.82353%);fill-opacity:1;" d="M 32.328125 35.285156 C 32.710938 35.285156 33.09375 35.285156 33.488281 35.285156 C 33.378906 35.988281 33.25 36.683594 33.117188 37.378906 C 33.109375 37.433594 33.097656 37.484375 33.085938 37.539062 C 32.902344 38.507812 32.699219 39.472656 32.484375 40.4375 C 32.453125 40.578125 32.421875 40.71875 32.390625 40.859375 C 32.320312 41.1875 32.246094 41.515625 32.175781 41.84375 C 31.816406 41.84375 31.460938 41.84375 31.09375 41.84375 C 31.140625 41.425781 31.203125 41.015625 31.285156 40.605469 C 31.296875 40.546875 31.308594 40.488281 31.320312 40.429688 C 31.355469 40.238281 31.394531 40.050781 31.429688 39.859375 C 31.457031 39.726562 31.484375 39.597656 31.507812 39.464844 C 31.578125 39.117188 31.644531 38.773438 31.710938 38.425781 C 31.78125 38.074219 31.851562 37.71875 31.921875 37.363281 C 32.058594 36.671875 32.191406 35.980469 32.328125 35.285156 Z M 32.328125 35.285156 "/>
<path style=" stroke:none;fill-rule:nonzero;fill:rgb(99.215686%,99.215686%,99.215686%);fill-opacity:1;" d="M 50.429688 37.789062 C 50.59375 37.925781 50.71875 38.058594 50.816406 38.253906 C 50.882812 39.09375 50.75 39.726562 50.371094 40.46875 C 50.082031 40.804688 49.804688 41.027344 49.363281 41.097656 C 49.023438 41.113281 48.792969 41.097656 48.488281 40.9375 C 48.21875 40.601562 48.152344 40.269531 48.167969 39.839844 C 48.242188 39.101562 48.449219 38.421875 49 37.90625 C 49.398438 37.628906 49.996094 37.558594 50.429688 37.789062 Z M 50.429688 37.789062 "/>
<path style=" stroke:none;fill-rule:nonzero;fill:rgb(99.215686%,99.215686%,99.215686%);fill-opacity:1;" d="M 29.082031 37.804688 C 29.308594 38.003906 29.378906 38.167969 29.417969 38.472656 C 29.425781 39.25 29.300781 40.019531 28.804688 40.640625 C 28.507812 40.941406 28.21875 41.082031 27.800781 41.101562 C 27.457031 41.085938 27.253906 40.980469 26.992188 40.75 C 26.710938 40.324219 26.792969 39.753906 26.839844 39.269531 C 26.996094 38.621094 27.285156 38.148438 27.84375 37.785156 C 28.25 37.648438 28.683594 37.636719 29.082031 37.804688 Z M 29.082031 37.804688 "/>
<path style=" stroke:none;fill-rule:nonzero;fill:rgb(38.431373%,38.431373%,39.215687%);fill-opacity:1;" d="M 79.894531 36.769531 C 80.253906 36.769531 80.609375 36.769531 80.980469 36.769531 C 80.851562 37.695312 80.667969 38.605469 80.488281 39.519531 C 80.433594 39.792969 80.378906 40.0625 80.324219 40.335938 C 80.289062 40.507812 80.257812 40.679688 80.222656 40.855469 C 80.207031 40.9375 80.191406 41.015625 80.171875 41.101562 C 80.160156 41.175781 80.144531 41.25 80.128906 41.328125 C 80.109375 41.425781 80.109375 41.425781 80.089844 41.527344 C 80.050781 41.6875 80.050781 41.6875 79.972656 41.84375 C 79.640625 41.84375 79.308594 41.84375 78.96875 41.84375 C 79.011719 41.183594 79.101562 40.558594 79.238281 39.910156 C 79.257812 39.820312 79.277344 39.730469 79.296875 39.636719 C 79.355469 39.351562 79.414062 39.066406 79.476562 38.78125 C 79.515625 38.585938 79.558594 38.390625 79.597656 38.195312 C 79.695312 37.71875 79.796875 37.246094 79.894531 36.769531 Z M 79.894531 36.769531 "/>
<path style=" stroke:none;fill-rule:nonzero;fill:rgb(38.039216%,38.039216%,38.82353%);fill-opacity:1;" d="M 72.546875 36.769531 C 72.90625 36.769531 73.261719 36.769531 73.632812 36.769531 C 73.300781 38.445312 72.96875 40.117188 72.625 41.84375 C 72.269531 41.84375 71.910156 41.84375 71.542969 41.84375 C 71.640625 41.179688 71.75 40.519531 71.878906 39.863281 C 71.894531 39.773438 71.914062 39.6875 71.929688 39.597656 C 71.964844 39.417969 72 39.238281 72.035156 39.054688 C 72.089844 38.777344 72.144531 38.5 72.195312 38.21875 C 72.230469 38.042969 72.265625 37.867188 72.300781 37.691406 C 72.316406 37.605469 72.332031 37.523438 72.347656 37.4375 C 72.363281 37.359375 72.378906 37.285156 72.394531 37.207031 C 72.40625 37.136719 72.421875 37.070312 72.433594 37 C 72.472656 36.847656 72.472656 36.847656 72.546875 36.769531 Z M 72.546875 36.769531 "/>
<path style=" stroke:none;fill-rule:nonzero;fill:rgb(40.000001%,40.000001%,40.392157%);fill-opacity:1;" d="M 97.746094 10.742188 C 98.320312 11.042969 98.691406 11.40625 98.921875 12.023438 C 99.078125 12.550781 99.074219 13.09375 98.851562 13.597656 C 98.585938 14.078125 98.203125 14.480469 97.695312 14.691406 C 97.03125 14.863281 96.359375 14.835938 95.761719 14.484375 C 95.273438 14.125 94.988281 13.675781 94.859375 13.078125 C 94.765625 12.414062 94.933594 11.90625 95.257812 11.335938 C 95.945312 10.695312 96.84375 10.367188 97.746094 10.742188 Z M 95.574219 11.492188 C 95.246094 11.914062 95.105469 12.351562 95.132812 12.886719 C 95.207031 13.398438 95.449219 13.78125 95.828125 14.121094 C 96.347656 14.492188 96.832031 14.492188 97.453125 14.441406 C 97.722656 14.359375 97.722656 14.359375 97.917969 14.207031 C 97.984375 14.167969 98.046875 14.128906 98.117188 14.085938 C 98.503906 13.691406 98.710938 13.234375 98.734375 12.675781 C 98.703125 12.089844 98.503906 11.722656 98.078125 11.328125 C 97.640625 10.953125 97.242188 10.894531 96.679688 10.90625 C 96.210938 10.953125 95.894531 11.148438 95.574219 11.492188 Z M 95.574219 11.492188 "/>
<path style=" stroke:none;fill-rule:nonzero;fill:rgb(40.392157%,40.392157%,40.392157%);fill-opacity:1;" d="M 95.984375 11.398438 C 96.203125 11.394531 96.425781 11.386719 96.652344 11.382812 C 96.71875 11.382812 96.789062 11.378906 96.859375 11.375 C 97.242188 11.371094 97.503906 11.417969 97.839844 11.632812 C 98.011719 11.839844 97.996094 11.945312 97.980469 12.222656 C 97.890625 12.601562 97.765625 12.671875 97.453125 12.882812 C 97.492188 12.925781 97.527344 12.972656 97.566406 13.019531 C 97.640625 13.113281 97.640625 13.113281 97.714844 13.207031 C 97.761719 13.269531 97.8125 13.328125 97.859375 13.390625 C 97.992188 13.582031 98.074219 13.757812 98.148438 13.972656 C 97.976562 14 97.976562 14 97.761719 13.972656 C 97.59375 13.792969 97.59375 13.792969 97.4375 13.554688 C 97.234375 13.242188 97.234375 13.242188 96.988281 12.960938 C 96.820312 12.921875 96.820312 12.921875 96.632812 12.910156 C 96.519531 12.902344 96.40625 12.890625 96.292969 12.882812 C 96.292969 13.242188 96.292969 13.601562 96.292969 13.972656 C 96.191406 13.972656 96.089844 13.972656 95.984375 13.972656 C 95.984375 13.125 95.984375 12.273438 95.984375 11.398438 Z M 95.984375 11.398438 "/>
<path style=" stroke:none;fill-rule:nonzero;fill:rgb(96.862745%,96.862745%,96.862745%);fill-opacity:1;" d="M 37.28125 37.785156 C 37.605469 38.132812 37.589844 38.382812 37.589844 38.878906 C 36.722656 38.878906 35.851562 38.878906 34.960938 38.878906 C 35.113281 38.328125 35.242188 38.046875 35.699219 37.722656 C 36.242188 37.453125 36.746094 37.496094 37.28125 37.785156 Z M 37.28125 37.785156 "/>
<path style=" stroke:none;fill-rule:nonzero;fill:rgb(97.254902%,97.254902%,97.254902%);fill-opacity:1;" d="M 56.136719 37.644531 C 56.414062 37.800781 56.503906 37.875 56.617188 38.175781 C 56.617188 38.40625 56.617188 38.636719 56.617188 38.878906 C 55.773438 38.878906 54.929688 38.878906 54.0625 38.878906 C 54.171875 38.339844 54.386719 38.015625 54.835938 37.707031 C 55.269531 37.472656 55.683594 37.5 56.136719 37.644531 Z M 56.136719 37.644531 "/>
<path style=" stroke:none;fill-rule:nonzero;fill:rgb(97.254902%,97.254902%,97.254902%);fill-opacity:1;" d="M 23.746094 37.785156 C 24.066406 38.140625 23.976562 38.339844 23.976562 38.878906 C 23.132812 38.878906 22.292969 38.878906 21.425781 38.878906 C 21.664062 38.152344 21.773438 37.949219 22.386719 37.597656 C 22.894531 37.472656 23.289062 37.523438 23.746094 37.785156 Z M 23.746094 37.785156 "/>
<path style=" stroke:none;fill-rule:nonzero;fill:rgb(98.823529%,98.823529%,98.823529%);fill-opacity:1;" d="M 90.261719 39.347656 C 90.390625 39.734375 90.183594 40.074219 90.027344 40.4375 C 89.828125 40.824219 89.589844 41.074219 89.175781 41.21875 C 88.855469 41.269531 88.585938 41.261719 88.28125 41.140625 C 88.140625 40.9375 88.125 40.761719 88.136719 40.515625 C 88.199219 40.230469 88.324219 40.136719 88.558594 39.96875 C 88.835938 39.847656 89.121094 39.753906 89.410156 39.65625 C 89.570312 39.601562 89.730469 39.542969 89.886719 39.480469 C 90.011719 39.4375 90.136719 39.390625 90.261719 39.347656 Z M 90.261719 39.347656 "/>
<path style=" stroke:none;fill-rule:nonzero;fill:rgb(38.82353%,38.82353%,39.215687%);fill-opacity:1;" d="M 73.394531 35.1875 C 73.496094 35.1875 73.496094 35.1875 73.597656 35.183594 C 73.785156 35.207031 73.785156 35.207031 73.925781 35.308594 C 74.019531 35.441406 74.019531 35.441406 74.019531 35.714844 C 73.941406 35.988281 73.941406 35.988281 73.789062 36.140625 C 73.457031 36.257812 73.132812 36.269531 72.78125 36.222656 C 72.703125 36.171875 72.628906 36.121094 72.546875 36.066406 C 72.515625 35.84375 72.515625 35.84375 72.546875 35.597656 C 72.808594 35.277344 72.992188 35.195312 73.394531 35.1875 Z M 73.394531 35.1875 "/>
<path style=" stroke:none;fill-rule:nonzero;fill:rgb(38.039216%,38.039216%,38.82353%);fill-opacity:1;" d="M 81.132812 35.207031 C 81.210938 35.257812 81.285156 35.3125 81.367188 35.363281 C 81.40625 35.628906 81.40625 35.628906 81.367188 35.910156 C 81.21875 36.101562 81.21875 36.101562 80.980469 36.222656 C 80.59375 36.273438 80.300781 36.289062 79.972656 36.066406 C 79.933594 35.804688 79.933594 35.804688 79.972656 35.519531 C 80.269531 35.132812 80.683594 35.140625 81.132812 35.207031 Z M 81.132812 35.207031 "/>
<path style=" stroke:none;fill-rule:nonzero;fill:rgb(98.039216%,98.039216%,98.039216%);fill-opacity:1;" d="M 96.292969 11.710938 C 96.46875 11.707031 96.644531 11.703125 96.820312 11.699219 C 96.917969 11.699219 97.015625 11.695312 97.117188 11.695312 C 97.375 11.710938 97.375 11.710938 97.609375 11.867188 C 97.640625 12.09375 97.640625 12.09375 97.609375 12.335938 C 97.421875 12.53125 97.316406 12.566406 97.046875 12.589844 C 96.957031 12.589844 96.867188 12.585938 96.777344 12.582031 C 96.6875 12.582031 96.59375 12.578125 96.503906 12.578125 C 96.433594 12.574219 96.363281 12.570312 96.292969 12.570312 C 96.292969 12.285156 96.292969 12.003906 96.292969 11.710938 Z M 96.292969 11.710938 "/>
<path style=" stroke:none;fill-rule:nonzero;fill:rgb(90.196079%,55.29412%,35.294119%);fill-opacity:1;" d="M 17.09375 28.027344 C 16.847656 28.191406 16.746094 28.207031 16.460938 28.230469 C 16.355469 28.238281 16.355469 28.238281 16.25 28.25 C 16.167969 28.253906 16.167969 28.253906 16.085938 28.261719 C 16.085938 28.285156 16.085938 28.3125 16.085938 28.339844 C 15.445312 28.34375 14.800781 28.34375 14.160156 28.347656 C 13.859375 28.347656 13.5625 28.347656 13.265625 28.351562 C 12.976562 28.351562 12.6875 28.351562 12.402344 28.351562 C 12.289062 28.351562 12.179688 28.355469 12.070312 28.355469 C 11.917969 28.355469 11.761719 28.355469 11.609375 28.355469 C 11.523438 28.355469 11.433594 28.355469 11.34375 28.355469 C 11.136719 28.339844 11.136719 28.339844 10.984375 28.183594 C 11.03125 28.183594 11.082031 28.183594 11.128906 28.183594 C 11.644531 28.1875 12.164062 28.191406 12.679688 28.195312 C 12.871094 28.195312 13.0625 28.199219 13.253906 28.199219 C 14.277344 28.210938 15.277344 28.203125 16.289062 28.023438 C 16.351562 28.011719 16.414062 28.003906 16.476562 27.992188 C 16.527344 27.980469 16.578125 27.972656 16.632812 27.960938 C 16.804688 27.945312 16.929688 27.976562 17.09375 28.027344 Z M 17.09375 28.027344 "/>
<path style=" stroke:none;fill-rule:nonzero;fill:rgb(92.941177%,92.941177%,93.333334%);fill-opacity:1;" d="M 17.789062 40.828125 C 17.9375 41.132812 17.722656 41.539062 17.632812 41.84375 C 17.964844 41.84375 18.296875 41.84375 18.640625 41.84375 C 18.640625 41.871094 18.640625 41.894531 18.640625 41.921875 C 17.890625 41.988281 17.148438 42.007812 16.398438 42 C 16.628906 41.84375 16.628906 41.84375 16.875 41.722656 C 17.257812 41.507812 17.515625 41.164062 17.789062 40.828125 Z M 17.789062 40.828125 "/>
<path style=" stroke:none;fill-rule:nonzero;fill:rgb(100%,97.254902%,90.588236%);fill-opacity:1;" d="M 19.027344 32.554688 C 18.714844 32.78125 18.503906 32.8125 18.121094 32.796875 C 17.789062 32.773438 17.789062 32.773438 17.480469 32.867188 C 17.125 32.882812 16.773438 32.878906 16.417969 32.878906 C 16.242188 32.878906 16.066406 32.882812 15.890625 32.882812 C 15.777344 32.882812 15.667969 32.882812 15.554688 32.882812 C 15.453125 32.882812 15.351562 32.886719 15.246094 32.886719 C 15.003906 32.867188 15.003906 32.867188 14.851562 32.710938 C 14.953125 32.707031 14.953125 32.707031 15.054688 32.707031 C 15.371094 32.699219 15.683594 32.691406 16 32.679688 C 16.085938 32.679688 16.085938 32.679688 16.171875 32.675781 C 16.890625 32.65625 17.605469 32.625 18.320312 32.519531 C 18.578125 32.484375 18.78125 32.464844 19.027344 32.554688 Z M 19.027344 32.554688 "/>
<path style=" stroke:none;fill-rule:nonzero;fill:rgb(88.627452%,53.333336%,31.764707%);fill-opacity:1;" d="M 16.628906 23.5 C 16.757812 23.5 16.882812 23.5 17.015625 23.5 C 16.789062 23.753906 16.585938 23.886719 16.269531 24.015625 C 16.195312 24.046875 16.121094 24.078125 16.046875 24.109375 C 15.371094 24.335938 14.722656 24.382812 14.015625 24.382812 C 13.925781 24.382812 13.835938 24.382812 13.746094 24.382812 C 13.132812 24.375 12.574219 24.324219 11.988281 24.121094 C 12.234375 24.042969 12.386719 24.050781 12.636719 24.113281 C 13.363281 24.261719 14.113281 24.253906 14.851562 24.277344 C 14.851562 24.226562 14.851562 24.175781 14.851562 24.121094 C 15.128906 24.121094 15.410156 24.121094 15.699219 24.121094 C 15.699219 24.070312 15.699219 24.019531 15.699219 23.964844 C 15.828125 23.964844 15.957031 23.964844 16.085938 23.964844 C 16.113281 23.914062 16.136719 23.863281 16.164062 23.808594 C 16.402344 23.761719 16.402344 23.761719 16.628906 23.730469 C 16.628906 23.65625 16.628906 23.578125 16.628906 23.5 Z M 16.628906 23.5 "/>
<path style=" stroke:none;fill-rule:nonzero;fill:rgb(96.470588%,96.470588%,96.470588%);fill-opacity:1;" d="M 50.351562 41.0625 C 50.453125 41.371094 50.371094 41.542969 50.273438 41.84375 C 50.578125 41.84375 50.886719 41.84375 51.203125 41.84375 C 51.203125 41.871094 51.203125 41.894531 51.203125 41.921875 C 50.503906 42.003906 49.8125 42.007812 49.113281 42 C 49.238281 41.917969 49.363281 41.832031 49.488281 41.757812 C 49.824219 41.554688 50.089844 41.351562 50.351562 41.0625 Z M 50.351562 41.0625 "/>
<path style=" stroke:none;fill-rule:nonzero;fill:rgb(94.509804%,94.509804%,94.509804%);fill-opacity:1;" d="M 26.453125 41.0625 C 26.683594 41.296875 26.683594 41.296875 26.871094 41.53125 C 27.035156 41.726562 27.175781 41.855469 27.378906 42 C 26.703125 42.007812 26.042969 42 25.367188 41.921875 C 25.394531 41.84375 25.417969 41.765625 25.445312 41.6875 C 25.445312 41.738281 25.445312 41.789062 25.445312 41.84375 C 25.753906 41.84375 26.058594 41.84375 26.375 41.84375 C 26.398438 41.585938 26.425781 41.328125 26.453125 41.0625 Z M 26.453125 41.0625 "/>
<path style=" stroke:none;fill-rule:nonzero;fill:rgb(94.901961%,94.901961%,94.901961%);fill-opacity:1;" d="M 89.949219 41.140625 C 90.046875 41.433594 89.980469 41.5625 89.875 41.84375 C 90.179688 41.84375 90.484375 41.84375 90.800781 41.84375 C 90.800781 41.871094 90.800781 41.894531 90.800781 41.921875 C 90.105469 42.003906 89.414062 42.007812 88.714844 42 C 88.902344 41.871094 89.089844 41.765625 89.289062 41.660156 C 89.550781 41.515625 89.753906 41.371094 89.949219 41.140625 Z M 89.949219 41.140625 "/>
<path style=" stroke:none;fill-rule:nonzero;fill:rgb(88.235295%,53.725493%,32.549021%);fill-opacity:1;" d="M 25.753906 8.195312 C 25.78125 8.195312 25.804688 8.195312 25.832031 8.195312 C 25.796875 9.089844 25.734375 9.96875 25.601562 10.851562 C 25.449219 10.851562 25.292969 10.851562 25.136719 10.851562 C 25.136719 10.800781 25.136719 10.75 25.136719 10.695312 C 25.035156 10.695312 24.933594 10.695312 24.828125 10.695312 C 24.800781 10.59375 24.777344 10.488281 24.75 10.382812 C 25.019531 10.480469 25.222656 10.597656 25.445312 10.773438 C 25.449219 10.691406 25.449219 10.691406 25.453125 10.605469 C 25.507812 9.796875 25.628906 9 25.753906 8.195312 Z M 25.753906 8.195312 "/>
<path style=" stroke:none;fill-rule:nonzero;fill:rgb(89.019608%,54.509807%,34.117648%);fill-opacity:1;" d="M 26.140625 5.464844 C 26.167969 5.464844 26.191406 5.464844 26.21875 5.464844 C 26.222656 5.644531 26.222656 5.824219 26.222656 6.007812 C 26.226562 6.105469 26.226562 6.207031 26.226562 6.3125 C 26.21875 6.558594 26.21875 6.558594 26.140625 6.636719 C 26.128906 6.78125 26.117188 6.925781 26.109375 7.070312 C 26.078125 7.464844 26.019531 7.816406 25.910156 8.195312 C 25.882812 8.195312 25.859375 8.195312 25.832031 8.195312 C 25.8125 7.59375 25.890625 7.027344 25.988281 6.4375 C 26.007812 6.296875 26.007812 6.296875 26.03125 6.152344 C 26.070312 5.921875 26.105469 5.695312 26.140625 5.464844 Z M 26.140625 5.464844 "/>
<path style=" stroke:none;fill-rule:nonzero;fill:rgb(87.843138%,51.372552%,30.19608%);fill-opacity:1;" d="M 17.324219 20.375 C 17.675781 20.636719 17.921875 20.867188 18.019531 21.3125 C 18.0625 21.757812 18.066406 22.078125 17.867188 22.484375 C 17.867188 22.070312 17.867188 21.660156 17.867188 21.234375 C 17.789062 21.234375 17.714844 21.234375 17.632812 21.234375 C 17.632812 21.105469 17.632812 20.976562 17.632812 20.84375 C 17.53125 20.792969 17.429688 20.742188 17.324219 20.6875 C 17.324219 20.585938 17.324219 20.480469 17.324219 20.375 Z M 17.324219 20.375 "/>
<path style=" stroke:none;fill-rule:nonzero;fill:rgb(90.196079%,52.549022%,28.627452%);fill-opacity:1;" d="M 31.09375 9.914062 C 31.339844 10.164062 31.414062 10.488281 31.53125 10.8125 C 31.558594 10.882812 31.582031 10.949219 31.609375 11.019531 C 31.632812 11.085938 31.65625 11.152344 31.683594 11.21875 C 31.714844 11.308594 31.714844 11.308594 31.75 11.402344 C 31.789062 11.554688 31.789062 11.554688 31.710938 11.710938 C 31.539062 11.535156 31.503906 11.425781 31.429688 11.191406 C 31.410156 11.128906 31.390625 11.066406 31.371094 11 C 31.355469 10.949219 31.339844 10.902344 31.324219 10.851562 C 31.246094 10.953125 31.171875 11.058594 31.09375 11.164062 C 31.09375 10.75 31.09375 10.339844 31.09375 9.914062 Z M 31.09375 9.914062 "/>
<path style=" stroke:none;fill-rule:nonzero;fill:rgb(89.411765%,51.764709%,28.627452%);fill-opacity:1;" d="M 23.511719 15.769531 C 23.761719 15.878906 23.902344 15.996094 24.074219 16.207031 C 24.132812 16.28125 24.132812 16.28125 24.195312 16.359375 C 24.238281 16.414062 24.238281 16.414062 24.285156 16.472656 C 24.386719 16.445312 24.488281 16.421875 24.59375 16.394531 C 24.59375 16.488281 24.59375 16.585938 24.589844 16.683594 C 24.589844 16.933594 24.613281 17.164062 24.671875 17.410156 C 24.429688 17.117188 24.222656 16.8125 24.015625 16.496094 C 23.855469 16.25 23.683594 16.007812 23.511719 15.769531 Z M 23.511719 15.769531 "/>
<path style=" stroke:none;fill-rule:nonzero;fill:rgb(99.607843%,93.333334%,86.274511%);fill-opacity:1;" d="M 28.695312 26.777344 C 28.71875 26.855469 28.746094 26.929688 28.773438 27.011719 C 28.429688 27.59375 27.914062 28.019531 27.378906 28.417969 C 27.328125 28.390625 27.277344 28.363281 27.226562 28.339844 C 27.261719 28.304688 27.300781 28.273438 27.339844 28.242188 C 27.855469 27.800781 28.28125 27.3125 28.695312 26.777344 Z M 28.695312 26.777344 "/>
<path style=" stroke:none;fill-rule:nonzero;fill:rgb(89.019608%,55.29412%,34.117648%);fill-opacity:1;" d="M 25.058594 19.125 C 25.085938 19.125 25.109375 19.125 25.136719 19.125 C 25.140625 19.398438 25.144531 19.671875 25.144531 19.945312 C 25.148438 20.023438 25.148438 20.097656 25.148438 20.179688 C 25.152344 20.636719 25.113281 21.027344 24.980469 21.46875 C 24.929688 21.46875 24.878906 21.46875 24.828125 21.46875 C 24.828125 21.546875 24.828125 21.621094 24.828125 21.703125 C 24.777344 21.675781 24.726562 21.652344 24.671875 21.625 C 24.695312 21.550781 24.714844 21.472656 24.738281 21.394531 C 24.945312 20.636719 25.039062 19.914062 25.058594 19.125 Z M 25.058594 19.125 "/>
<path style=" stroke:none;fill-rule:nonzero;fill:rgb(90.588236%,50.588238%,26.666668%);fill-opacity:1;" d="M 13.226562 17.957031 C 14.117188 18.523438 14.117188 18.523438 14.539062 18.8125 C 14.464844 18.851562 14.464844 18.851562 14.386719 18.890625 C 14.25 18.828125 14.25 18.828125 14.089844 18.734375 C 13.867188 18.617188 13.792969 18.578125 13.535156 18.597656 C 13.484375 18.617188 13.433594 18.636719 13.378906 18.65625 C 13.40625 18.527344 13.429688 18.398438 13.457031 18.269531 C 13.40625 18.269531 13.355469 18.269531 13.304688 18.269531 C 13.277344 18.164062 13.253906 18.0625 13.226562 17.957031 Z M 13.226562 17.957031 "/>
<path style=" stroke:none;fill-rule:nonzero;fill:rgb(37.254903%,37.254903%,37.254903%);fill-opacity:1;" d="M 96.371094 12.570312 C 96.546875 12.566406 96.726562 12.5625 96.902344 12.558594 C 97.050781 12.554688 97.050781 12.554688 97.199219 12.554688 C 97.453125 12.570312 97.453125 12.570312 97.609375 12.726562 C 97.558594 12.734375 97.507812 12.746094 97.457031 12.753906 C 97.40625 12.769531 97.351562 12.785156 97.296875 12.804688 C 97.273438 12.855469 97.246094 12.90625 97.222656 12.960938 C 96.941406 12.882812 96.660156 12.804688 96.371094 12.726562 C 96.371094 12.671875 96.371094 12.621094 96.371094 12.570312 Z M 96.371094 12.570312 "/>
<path style=" stroke:none;fill-rule:nonzero;fill:rgb(99.607843%,92.54902%,85.09804%);fill-opacity:1;" d="M 12.066406 7.105469 C 11.945312 7.402344 11.761719 7.59375 11.523438 7.808594 C 11.449219 7.808594 11.371094 7.808594 11.292969 7.808594 C 11.269531 7.855469 11.246094 7.902344 11.222656 7.953125 C 11.136719 8.117188 11.136719 8.117188 10.984375 8.273438 C 10.90625 8.25 10.828125 8.222656 10.75 8.195312 C 11.8125 7.105469 11.8125 7.105469 12.066406 7.105469 Z M 12.066406 7.105469 "/>
<path style=" stroke:none;fill-rule:nonzero;fill:rgb(89.019608%,53.333336%,30.980393%);fill-opacity:1;" d="M 11.910156 0.78125 C 11.835938 0.804688 11.757812 0.832031 11.679688 0.859375 C 11.679688 0.910156 11.679688 0.960938 11.679688 1.015625 C 11.628906 1.019531 11.578125 1.019531 11.527344 1.023438 C 11.199219 1.050781 10.90625 1.074219 10.605469 1.21875 C 10.347656 1.332031 10.304688 1.332031 10.054688 1.25 C 10.289062 1.15625 10.527344 1.0625 10.765625 0.972656 C 10.832031 0.945312 10.898438 0.917969 10.96875 0.890625 C 11.066406 0.851562 11.066406 0.851562 11.164062 0.816406 C 11.222656 0.792969 11.285156 0.769531 11.34375 0.742188 C 11.558594 0.695312 11.703125 0.722656 11.910156 0.78125 Z M 11.910156 0.78125 "/>
<path style=" stroke:none;fill-rule:nonzero;fill:rgb(89.803922%,52.549022%,29.803923%);fill-opacity:1;" d="M 24.285156 30.132812 C 24.488281 30.132812 24.695312 30.132812 24.90625 30.132812 C 24.65625 30.421875 24.371094 30.578125 24.035156 30.738281 C 23.984375 30.761719 23.933594 30.789062 23.882812 30.8125 C 23.757812 30.875 23.636719 30.933594 23.511719 30.992188 C 23.511719 30.941406 23.511719 30.890625 23.511719 30.835938 C 23.5625 30.835938 23.613281 30.835938 23.667969 30.835938 C 23.667969 30.785156 23.667969 30.734375 23.667969 30.679688 C 23.769531 30.679688 23.871094 30.679688 23.976562 30.679688 C 23.976562 30.628906 23.976562 30.578125 23.976562 30.523438 C 24.054688 30.523438 24.128906 30.523438 24.207031 30.523438 C 24.183594 30.445312 24.15625 30.371094 24.132812 30.289062 C 24.183594 30.289062 24.234375 30.289062 24.285156 30.289062 C 24.285156 30.238281 24.285156 30.1875 24.285156 30.132812 Z M 24.285156 30.132812 "/>
<path style=" stroke:none;fill-rule:nonzero;fill:rgb(99.607843%,94.509804%,86.274511%);fill-opacity:1;" d="M 25.753906 7.652344 C 25.78125 7.652344 25.804688 7.652344 25.832031 7.652344 C 25.789062 8.359375 25.707031 9.054688 25.601562 9.757812 C 25.574219 9.757812 25.550781 9.757812 25.523438 9.757812 C 25.53125 9.480469 25.542969 9.203125 25.550781 8.925781 C 25.554688 8.84375 25.558594 8.765625 25.558594 8.6875 C 25.5625 8.609375 25.566406 8.535156 25.570312 8.453125 C 25.570312 8.386719 25.574219 8.316406 25.574219 8.242188 C 25.601562 8.023438 25.667969 7.851562 25.753906 7.652344 Z M 25.753906 7.652344 "/>
<path style=" stroke:none;fill-rule:nonzero;fill:rgb(91.37255%,51.764709%,28.235295%);fill-opacity:1;" d="M 5.878906 3.824219 C 5.929688 3.851562 5.980469 3.875 6.03125 3.902344 C 5.980469 4.007812 5.929688 4.109375 5.878906 4.214844 C 5.800781 4.214844 5.726562 4.214844 5.644531 4.214844 C 5.621094 4.292969 5.59375 4.371094 5.570312 4.449219 C 5.492188 4.449219 5.414062 4.449219 5.335938 4.449219 C 5.335938 4.5 5.335938 4.554688 5.335938 4.605469 C 5.210938 4.632812 5.082031 4.65625 4.949219 4.683594 C 5.246094 4.378906 5.554688 4.097656 5.878906 3.824219 Z M 5.878906 3.824219 "/>
<path style=" stroke:none;fill-rule:nonzero;fill:rgb(90.980393%,51.764709%,29.019609%);fill-opacity:1;" d="M 25.445312 2.964844 C 25.820312 3.171875 26.132812 3.386719 26.453125 3.667969 C 26.296875 3.746094 26.296875 3.746094 26.148438 3.71875 C 25.980469 3.660156 25.832031 3.601562 25.679688 3.511719 C 25.601562 3.304688 25.601562 3.304688 25.601562 3.121094 C 25.550781 3.121094 25.5 3.121094 25.445312 3.121094 C 25.445312 3.070312 25.445312 3.019531 25.445312 2.964844 Z M 25.445312 2.964844 "/>
<path style=" stroke:none;fill-rule:nonzero;fill:rgb(90.980393%,51.764709%,27.843139%);fill-opacity:1;" d="M 3.480469 26.386719 C 3.582031 26.414062 3.683594 26.4375 3.789062 26.464844 C 3.789062 26.515625 3.789062 26.566406 3.789062 26.621094 C 3.839844 26.621094 3.890625 26.621094 3.945312 26.621094 C 3.96875 26.671875 3.996094 26.722656 4.023438 26.777344 C 4.074219 26.75 4.125 26.726562 4.175781 26.699219 C 4.203125 26.90625 4.226562 27.109375 4.253906 27.324219 C 3.976562 27.050781 3.722656 26.769531 3.480469 26.464844 C 3.480469 26.4375 3.480469 26.414062 3.480469 26.386719 Z M 3.480469 26.386719 "/>
<path style=" stroke:none;fill-rule:nonzero;fill:rgb(88.627452%,53.333336%,31.37255%);fill-opacity:1;" d="M 18.640625 27.558594 C 18.539062 27.582031 18.4375 27.609375 18.332031 27.636719 C 18.332031 27.738281 18.332031 27.839844 18.332031 27.949219 C 17.921875 27.949219 17.515625 27.949219 17.09375 27.949219 C 17.09375 27.921875 17.09375 27.894531 17.09375 27.871094 C 17.320312 27.800781 17.550781 27.734375 17.78125 27.667969 C 17.84375 27.652344 17.910156 27.632812 17.976562 27.613281 C 18.039062 27.59375 18.101562 27.574219 18.164062 27.558594 C 18.25 27.53125 18.25 27.53125 18.339844 27.507812 C 18.484375 27.480469 18.484375 27.480469 18.640625 27.558594 Z M 18.640625 27.558594 "/>
<path style=" stroke:none;fill-rule:nonzero;fill:rgb(89.019608%,52.549022%,30.588236%);fill-opacity:1;" d="M 29.3125 6.792969 C 29.636719 7.089844 29.882812 7.414062 30.085938 7.808594 C 30.085938 7.859375 30.085938 7.910156 30.085938 7.960938 C 29.941406 7.910156 29.941406 7.910156 29.777344 7.808594 C 29.726562 7.675781 29.675781 7.546875 29.621094 7.417969 C 29.464844 7.3125 29.464844 7.3125 29.3125 7.261719 C 29.3125 7.105469 29.3125 6.949219 29.3125 6.792969 Z M 29.3125 6.792969 "/>
<path style=" stroke:none;fill-rule:nonzero;fill:rgb(88.627452%,54.11765%,33.333334%);fill-opacity:1;" d="M 10.671875 31.695312 C 10.789062 31.707031 10.902344 31.71875 11.015625 31.730469 C 11.113281 31.738281 11.113281 31.738281 11.210938 31.75 C 11.371094 31.773438 11.371094 31.773438 11.445312 31.851562 C 11.550781 31.871094 11.65625 31.882812 11.761719 31.894531 C 11.863281 31.90625 11.960938 31.917969 12.066406 31.929688 C 12.066406 31.980469 12.066406 32.03125 12.066406 32.085938 C 12.140625 32.085938 12.21875 32.085938 12.296875 32.085938 C 12.296875 32.136719 12.296875 32.1875 12.296875 32.242188 C 11.746094 32.109375 11.207031 31.960938 10.671875 31.773438 C 10.671875 31.746094 10.671875 31.722656 10.671875 31.695312 Z M 10.671875 31.695312 "/>
<path style=" stroke:none;fill-rule:nonzero;fill:rgb(91.37255%,50.980395%,26.274511%);fill-opacity:1;" d="M 17.726562 22.433594 C 17.773438 22.449219 17.820312 22.464844 17.867188 22.484375 C 17.765625 22.789062 17.640625 22.96875 17.402344 23.1875 C 17.429688 23.003906 17.453125 22.824219 17.480469 22.640625 C 17.429688 22.613281 17.378906 22.585938 17.324219 22.5625 C 17.558594 22.40625 17.558594 22.40625 17.726562 22.433594 Z M 17.726562 22.433594 "/>
<path style=" stroke:none;fill-rule:nonzero;fill:rgb(92.156863%,50.196081%,23.529412%);fill-opacity:1;" d="M 22.199219 31.304688 C 22.199219 31.40625 22.199219 31.511719 22.199219 31.617188 C 21.855469 31.78125 21.855469 31.78125 21.632812 31.742188 C 21.589844 31.726562 21.546875 31.710938 21.5 31.695312 C 21.628906 31.308594 21.828125 31.285156 22.199219 31.304688 Z M 22.199219 31.304688 "/>
<path style=" stroke:none;fill-rule:nonzero;fill:rgb(88.627452%,52.156866%,29.803923%);fill-opacity:1;" d="M 32.175781 18.734375 C 32.199219 18.734375 32.226562 18.734375 32.253906 18.734375 C 32.214844 19.269531 32.148438 19.777344 32.019531 20.296875 C 31.996094 20.296875 31.96875 20.296875 31.941406 20.296875 C 31.917969 20.066406 31.890625 19.832031 31.867188 19.59375 C 31.941406 19.570312 32.019531 19.542969 32.097656 19.515625 C 32.097656 19.46875 32.097656 19.417969 32.09375 19.367188 C 32.09375 19.269531 32.09375 19.269531 32.09375 19.171875 C 32.09375 19.105469 32.089844 19.042969 32.089844 18.976562 C 32.097656 18.8125 32.097656 18.8125 32.175781 18.734375 Z M 32.175781 18.734375 "/>
<path style=" stroke:none;fill-rule:nonzero;fill:rgb(89.803922%,52.156866%,29.411766%);fill-opacity:1;" d="M 16.011719 10.851562 C 16.164062 11.007812 16.164062 11.007812 16.164062 11.242188 C 16.242188 11.242188 16.316406 11.242188 16.398438 11.242188 C 16.398438 11.292969 16.398438 11.34375 16.398438 11.398438 C 16.472656 11.398438 16.550781 11.398438 16.628906 11.398438 C 16.65625 11.578125 16.679688 11.757812 16.707031 11.945312 C 16.367188 11.6875 16.167969 11.492188 16.011719 11.085938 C 16.011719 11.007812 16.011719 10.929688 16.011719 10.851562 Z M 16.011719 10.851562 "/>
<path style=" stroke:none;fill-rule:nonzero;fill:rgb(91.764706%,50.980395%,27.058825%);fill-opacity:1;" d="M 30.085938 7.960938 C 30.347656 8.175781 30.429688 8.4375 30.550781 8.742188 C 30.285156 8.679688 30.285156 8.679688 30.007812 8.585938 C 29.914062 8.304688 29.96875 8.226562 30.085938 7.960938 Z M 30.085938 7.960938 "/>
<path style=" stroke:none;fill-rule:nonzero;fill:rgb(90.196079%,51.764709%,28.627452%);fill-opacity:1;" d="M 29.777344 25.292969 C 29.65625 25.660156 29.460938 25.925781 29.234375 26.230469 C 29.210938 26.128906 29.183594 26.023438 29.160156 25.917969 C 29.210938 25.917969 29.261719 25.917969 29.3125 25.917969 C 29.324219 25.828125 29.332031 25.742188 29.34375 25.648438 C 29.359375 25.558594 29.375 25.464844 29.390625 25.371094 C 29.546875 25.292969 29.546875 25.292969 29.777344 25.292969 Z M 29.777344 25.292969 "/>
<path style=" stroke:none;fill-rule:nonzero;fill:rgb(98.431373%,90.196079%,81.568629%);fill-opacity:1;" d="M 19.027344 32.554688 C 18.667969 32.835938 18.386719 32.804688 17.957031 32.765625 C 17.898438 32.757812 17.835938 32.753906 17.773438 32.75 C 17.625 32.738281 17.472656 32.722656 17.324219 32.710938 C 17.324219 32.683594 17.324219 32.660156 17.324219 32.632812 C 17.550781 32.605469 17.777344 32.574219 18 32.550781 C 18.097656 32.535156 18.097656 32.535156 18.195312 32.523438 C 18.257812 32.515625 18.320312 32.511719 18.382812 32.503906 C 18.4375 32.496094 18.496094 32.488281 18.554688 32.480469 C 18.726562 32.476562 18.863281 32.503906 19.027344 32.554688 Z M 19.027344 32.554688 "/>
<path style=" stroke:none;fill-rule:nonzero;fill:rgb(89.411765%,52.156866%,28.235295%);fill-opacity:1;" d="M 12.066406 6.792969 C 12.167969 6.816406 12.269531 6.84375 12.375 6.871094 C 12.265625 6.960938 12.152344 7.050781 12.042969 7.136719 C 11.949219 7.214844 11.949219 7.214844 11.855469 7.289062 C 11.679688 7.417969 11.679688 7.417969 11.445312 7.496094 C 11.421875 7.390625 11.394531 7.289062 11.371094 7.183594 C 11.421875 7.183594 11.472656 7.183594 11.523438 7.183594 C 11.574219 7.128906 11.625 7.078125 11.679688 7.027344 C 11.730469 7.050781 11.78125 7.078125 11.832031 7.105469 C 11.832031 7.050781 11.832031 7 11.832031 6.949219 C 11.910156 6.949219 11.988281 6.949219 12.066406 6.949219 C 12.066406 6.894531 12.066406 6.84375 12.066406 6.792969 Z M 12.066406 6.792969 "/>
<path style=" stroke:none;fill-rule:nonzero;fill:rgb(99.607843%,94.509804%,87.450981%);fill-opacity:1;" d="M 3.867188 5.621094 C 3.917969 5.648438 3.96875 5.671875 4.023438 5.699219 C 3.640625 6.203125 3.640625 6.203125 3.25 6.714844 C 3.222656 6.609375 3.199219 6.507812 3.171875 6.402344 C 3.246094 6.375 3.324219 6.351562 3.402344 6.324219 C 3.410156 6.238281 3.410156 6.238281 3.417969 6.148438 C 3.5 5.871094 3.636719 5.78125 3.867188 5.621094 Z M 3.867188 5.621094 "/>
<path style=" stroke:none;fill-rule:nonzero;fill:rgb(87.450981%,53.725493%,34.117648%);fill-opacity:1;" d="M 63.578125 0.078125 C 63.628906 0.105469 63.679688 0.128906 63.730469 0.15625 C 63.578125 0.441406 63.425781 0.722656 63.265625 1.015625 C 63.242188 1.015625 63.214844 1.015625 63.191406 1.015625 C 63.191406 0.886719 63.191406 0.757812 63.191406 0.625 C 63.242188 0.625 63.292969 0.625 63.34375 0.625 C 63.34375 0.546875 63.34375 0.46875 63.34375 0.390625 C 63.242188 0.363281 63.140625 0.339844 63.035156 0.3125 C 63.214844 0.230469 63.394531 0.152344 63.578125 0.078125 Z M 63.578125 0.078125 "/>
<path style=" stroke:none;fill-rule:nonzero;fill:rgb(40.784314%,40.784314%,40.784314%);fill-opacity:1;" d="M 59.863281 29.976562 C 60.015625 30.082031 60.171875 30.183594 60.328125 30.289062 C 60.300781 30.339844 60.277344 30.394531 60.25 30.445312 C 60.191406 30.441406 60.132812 30.441406 60.070312 30.4375 C 59.847656 30.429688 59.847656 30.429688 59.632812 30.601562 C 59.777344 30.066406 59.777344 30.066406 59.863281 29.976562 Z M 59.863281 29.976562 "/>
<path style=" stroke:none;fill-rule:nonzero;fill:rgb(90.196079%,51.372552%,25.882354%);fill-opacity:1;" d="M 20.726562 26.464844 C 20.726562 26.515625 20.726562 26.566406 20.726562 26.621094 C 20.804688 26.648438 20.882812 26.671875 20.960938 26.699219 C 20.910156 26.75 20.859375 26.800781 20.804688 26.855469 C 20.523438 26.824219 20.523438 26.824219 20.265625 26.777344 C 20.238281 26.828125 20.214844 26.878906 20.1875 26.933594 C 20.136719 26.882812 20.085938 26.828125 20.03125 26.777344 C 20.554688 26.464844 20.554688 26.464844 20.726562 26.464844 Z M 20.726562 26.464844 "/>
<path style=" stroke:none;fill-rule:nonzero;fill:rgb(93.333334%,50.980395%,25.490198%);fill-opacity:1;" d="M 16.707031 23.1875 C 16.9375 23.1875 17.164062 23.1875 17.402344 23.1875 C 17.316406 23.335938 17.316406 23.335938 17.171875 23.5 C 16.921875 23.558594 16.921875 23.558594 16.707031 23.578125 C 16.707031 23.449219 16.707031 23.320312 16.707031 23.1875 Z M 16.707031 23.1875 "/>
<path style=" stroke:none;fill-rule:nonzero;fill:rgb(100%,94.117647%,86.666667%);fill-opacity:1;" d="M 29.546875 7.027344 C 29.871094 7.144531 29.980469 7.347656 30.148438 7.644531 C 30.199219 7.726562 30.246094 7.8125 30.296875 7.898438 C 30.394531 8.117188 30.394531 8.117188 30.320312 8.351562 C 30.203125 8.160156 30.089844 7.96875 29.976562 7.777344 C 29.941406 7.722656 29.910156 7.667969 29.875 7.613281 C 29.847656 7.558594 29.816406 7.507812 29.78125 7.453125 C 29.753906 7.40625 29.726562 7.355469 29.695312 7.308594 C 29.640625 7.214844 29.59375 7.121094 29.546875 7.027344 Z M 29.546875 7.027344 "/>
<path style=" stroke:none;fill-rule:nonzero;fill:rgb(89.803922%,54.901963%,34.509805%);fill-opacity:1;" d="M 56.074219 3.746094 C 56.046875 3.824219 56.023438 3.902344 55.996094 3.980469 C 55.945312 3.980469 55.894531 3.980469 55.84375 3.980469 C 55.824219 4.054688 55.808594 4.128906 55.789062 4.207031 C 55.6875 4.449219 55.6875 4.449219 55.484375 4.558594 C 55.425781 4.574219 55.363281 4.589844 55.300781 4.605469 C 55.40625 4.375 55.523438 4.191406 55.6875 4 C 55.726562 3.953125 55.765625 3.90625 55.808594 3.855469 C 55.917969 3.746094 55.917969 3.746094 56.074219 3.746094 Z M 56.074219 3.746094 "/>
<path style=" stroke:none;fill-rule:nonzero;fill:rgb(43.529412%,43.529412%,43.529412%);fill-opacity:1;" d="M 77.886719 40.203125 C 77.988281 40.414062 77.9375 40.53125 77.886719 40.75 C 77.707031 40.777344 77.527344 40.800781 77.34375 40.828125 C 77.417969 40.738281 77.496094 40.648438 77.570312 40.5625 C 77.613281 40.511719 77.65625 40.460938 77.699219 40.410156 C 77.757812 40.339844 77.820312 40.269531 77.886719 40.203125 Z M 77.1875 40.828125 C 77.34375 40.90625 77.34375 40.90625 77.34375 40.90625 Z M 77.1875 40.828125 "/>
<path style=" stroke:none;fill-rule:nonzero;fill:rgb(99.607843%,94.117647%,86.666667%);fill-opacity:1;" d="M 59.011719 2.109375 C 58.605469 2.289062 58.195312 2.46875 57.777344 2.652344 C 57.777344 2.578125 57.777344 2.5 57.777344 2.421875 C 58.710938 2.003906 58.710938 2.003906 59.011719 2.109375 Z M 59.011719 2.109375 "/>
<path style=" stroke:none;fill-rule:nonzero;fill:rgb(99.607843%,93.725491%,86.666667%);fill-opacity:1;" d="M 6.417969 23.03125 C 6.445312 23.03125 6.46875 23.03125 6.496094 23.03125 C 6.503906 23.191406 6.511719 23.355469 6.515625 23.519531 C 6.519531 23.609375 6.523438 23.699219 6.527344 23.792969 C 6.492188 24.089844 6.414062 24.171875 6.1875 24.355469 C 6.234375 23.90625 6.316406 23.472656 6.417969 23.03125 Z M 6.417969 23.03125 "/>
<path style=" stroke:none;fill-rule:nonzero;fill:rgb(88.627452%,53.725493%,32.941177%);fill-opacity:1;" d="M 9.359375 14.519531 C 9.421875 14.601562 9.421875 14.601562 9.484375 14.6875 C 9.6875 14.933594 9.902344 15.152344 10.132812 15.378906 C 10.105469 15.457031 10.082031 15.535156 10.054688 15.613281 C 10.003906 15.613281 9.953125 15.613281 9.898438 15.613281 C 9.878906 15.554688 9.859375 15.496094 9.835938 15.433594 C 9.75 15.230469 9.667969 15.136719 9.511719 14.988281 C 9.511719 14.9375 9.511719 14.886719 9.511719 14.832031 C 9.460938 14.832031 9.410156 14.832031 9.359375 14.832031 C 9.359375 14.730469 9.359375 14.625 9.359375 14.519531 Z M 9.359375 14.519531 "/>
<path style=" stroke:none;fill-rule:nonzero;fill:rgb(88.627452%,51.372552%,28.627452%);fill-opacity:1;" d="M 23.046875 24.433594 C 23.046875 24.71875 22.980469 24.828125 22.816406 25.058594 C 22.613281 25.195312 22.523438 25.214844 22.273438 25.214844 C 22.53125 24.957031 22.785156 24.699219 23.046875 24.433594 Z M 23.046875 24.433594 "/>
<path style=" stroke:none;fill-rule:nonzero;fill:rgb(99.607843%,94.509804%,89.019608%);fill-opacity:1;" d="M 61.332031 4.449219 C 61.410156 4.683594 61.410156 4.683594 61.410156 4.917969 C 61.335938 4.96875 61.257812 5.019531 61.179688 5.074219 C 61.085938 5.234375 61.085938 5.234375 61.023438 5.386719 C 60.972656 5.386719 60.921875 5.386719 60.871094 5.386719 C 60.992188 5.050781 61.15625 4.757812 61.332031 4.449219 Z M 61.332031 4.449219 "/>
<path style=" stroke:none;fill-rule:nonzero;fill:rgb(99.607843%,93.725491%,85.882354%);fill-opacity:1;" d="M 62.339844 2.578125 C 62.390625 2.679688 62.441406 2.78125 62.492188 2.886719 C 62.386719 3.042969 62.386719 3.042969 62.261719 3.199219 C 62.210938 3.199219 62.160156 3.199219 62.105469 3.199219 C 62.082031 3.328125 62.054688 3.457031 62.03125 3.589844 C 61.980469 3.589844 61.925781 3.589844 61.875 3.589844 C 61.984375 3.214844 62.140625 2.910156 62.339844 2.578125 Z M 62.339844 2.578125 "/>
<path style=" stroke:none;fill-rule:nonzero;fill:rgb(92.156863%,54.11765%,32.549021%);fill-opacity:1;" d="M 27.765625 27.558594 C 27.84375 27.582031 27.917969 27.609375 28 27.636719 C 27.84375 27.816406 27.691406 27.996094 27.535156 28.183594 C 27.484375 28.078125 27.433594 27.976562 27.378906 27.871094 C 27.507812 27.820312 27.636719 27.765625 27.765625 27.714844 C 27.765625 27.664062 27.765625 27.609375 27.765625 27.558594 Z M 27.765625 27.558594 "/>
<path style=" stroke:none;fill-rule:nonzero;fill:rgb(87.843138%,54.11765%,32.941177%);fill-opacity:1;" d="M 21.269531 8.507812 C 21.660156 8.558594 22 8.730469 22.351562 8.898438 C 22.210938 8.949219 22.210938 8.949219 22.042969 8.976562 C 21.964844 8.925781 21.890625 8.875 21.8125 8.820312 C 21.632812 8.765625 21.449219 8.714844 21.269531 8.664062 C 21.269531 8.613281 21.269531 8.5625 21.269531 8.507812 Z M 21.269531 8.507812 "/>
<path style=" stroke:none;fill-rule:nonzero;fill:rgb(90.196079%,52.156866%,29.019609%);fill-opacity:1;" d="M 57.621094 8.351562 C 57.800781 8.40625 57.976562 8.457031 58.164062 8.507812 C 57.980469 8.722656 57.808594 8.820312 57.542969 8.898438 C 57.46875 8.875 57.390625 8.847656 57.3125 8.820312 C 57.464844 8.769531 57.617188 8.71875 57.777344 8.664062 C 57.777344 8.613281 57.777344 8.5625 57.777344 8.507812 C 57.726562 8.507812 57.671875 8.507812 57.621094 8.507812 C 57.621094 8.457031 57.621094 8.40625 57.621094 8.351562 Z M 57.621094 8.351562 "/>
<path style=" stroke:none;fill-rule:nonzero;fill:rgb(89.019608%,52.941179%,30.980393%);fill-opacity:1;" d="M 61.796875 3.355469 C 61.847656 3.382812 61.898438 3.410156 61.953125 3.433594 C 61.761719 3.78125 61.761719 3.78125 61.566406 4.136719 C 61.539062 4.136719 61.515625 4.136719 61.488281 4.136719 C 61.527344 3.664062 61.527344 3.664062 61.566406 3.511719 C 61.640625 3.460938 61.71875 3.410156 61.796875 3.355469 Z M 61.796875 3.355469 "/>
<path style=" stroke:none;fill-rule:nonzero;fill:rgb(87.450981%,52.941179%,30.980393%);fill-opacity:1;" d="M 21.113281 31.929688 C 20.914062 32.0625 20.800781 32.121094 20.578125 32.179688 C 20.527344 32.191406 20.476562 32.207031 20.421875 32.21875 C 20.246094 32.246094 20.125 32.21875 19.953125 32.164062 C 20.078125 32.128906 20.078125 32.128906 20.207031 32.09375 C 20.484375 32.023438 20.484375 32.023438 20.664062 31.914062 C 20.84375 31.832031 20.933594 31.863281 21.113281 31.929688 Z M 21.113281 31.929688 "/>
<path style=" stroke:none;fill-rule:nonzero;fill:rgb(89.019608%,53.333336%,32.156864%);fill-opacity:1;" d="M 17.09375 28.027344 C 16.820312 28.210938 16.703125 28.199219 16.382812 28.191406 C 16.296875 28.191406 16.214844 28.1875 16.128906 28.1875 C 16.03125 28.183594 16.03125 28.183594 15.933594 28.183594 C 15.933594 28.15625 15.933594 28.128906 15.933594 28.105469 C 16.066406 28.074219 16.203125 28.046875 16.339844 28.019531 C 16.453125 28 16.453125 28 16.566406 27.972656 C 16.773438 27.949219 16.898438 27.960938 17.09375 28.027344 Z M 17.09375 28.027344 "/>
<path style=" stroke:none;fill-rule:nonzero;fill:rgb(88.235295%,52.941179%,32.549021%);fill-opacity:1;" d="M 18.949219 13.191406 C 19.355469 13.234375 19.667969 13.320312 20.03125 13.503906 C 20.058594 13.558594 20.082031 13.609375 20.109375 13.660156 C 19.292969 13.421875 19.292969 13.421875 18.949219 13.269531 C 18.949219 13.246094 18.949219 13.21875 18.949219 13.191406 Z M 18.949219 13.191406 "/>
<path style=" stroke:none;fill-rule:nonzero;fill:rgb(88.235295%,52.549022%,30.19608%);fill-opacity:1;" d="M 5.335938 28.417969 C 5.515625 28.390625 5.515625 28.390625 5.722656 28.417969 C 5.898438 28.640625 5.957031 28.753906 5.957031 29.039062 C 5.851562 28.953125 5.75 28.863281 5.644531 28.773438 C 5.589844 28.722656 5.53125 28.671875 5.472656 28.621094 C 5.425781 28.578125 5.382812 28.539062 5.335938 28.496094 C 5.335938 28.46875 5.335938 28.441406 5.335938 28.417969 Z M 5.335938 28.417969 "/>
<path style=" stroke:none;fill-rule:nonzero;fill:rgb(89.411765%,52.156866%,29.803923%);fill-opacity:1;" d="M 30.78125 23.34375 C 30.808594 23.394531 30.832031 23.445312 30.859375 23.5 C 30.78125 23.683594 30.78125 23.683594 30.671875 23.898438 C 30.636719 23.96875 30.597656 24.039062 30.5625 24.113281 C 30.53125 24.167969 30.503906 24.222656 30.472656 24.277344 C 30.386719 24.023438 30.410156 23.910156 30.472656 23.652344 C 30.523438 23.652344 30.574219 23.652344 30.628906 23.652344 C 30.679688 23.550781 30.730469 23.449219 30.78125 23.34375 Z M 30.78125 23.34375 "/>
<path style=" stroke:none;fill-rule:nonzero;fill:rgb(89.019608%,52.941179%,30.588236%);fill-opacity:1;" d="M 25.679688 29.429688 C 25.753906 29.457031 25.832031 29.484375 25.910156 29.507812 C 25.566406 29.78125 25.566406 29.78125 25.214844 30.054688 C 25.1875 29.953125 25.164062 29.851562 25.136719 29.742188 C 25.238281 29.742188 25.339844 29.742188 25.445312 29.742188 C 25.445312 29.691406 25.445312 29.640625 25.445312 29.585938 C 25.523438 29.585938 25.597656 29.585938 25.679688 29.585938 C 25.679688 29.535156 25.679688 29.484375 25.679688 29.429688 Z M 25.679688 29.429688 "/>
<path style=" stroke:none;fill-rule:nonzero;fill:rgb(87.843138%,53.333336%,32.549021%);fill-opacity:1;" d="M 11.058594 16.316406 C 11.171875 16.386719 11.285156 16.460938 11.398438 16.535156 C 11.460938 16.578125 11.523438 16.617188 11.589844 16.660156 C 11.757812 16.785156 11.757812 16.785156 11.910156 17.019531 C 11.753906 16.972656 11.601562 16.917969 11.445312 16.863281 C 11.421875 16.8125 11.394531 16.757812 11.371094 16.707031 C 11.214844 16.617188 11.214844 16.617188 11.058594 16.550781 C 11.058594 16.472656 11.058594 16.394531 11.058594 16.316406 Z M 11.058594 16.316406 "/>
<path style=" stroke:none;fill-rule:nonzero;fill:rgb(87.843138%,54.11765%,34.509805%);fill-opacity:1;" d="M 22.121094 14.675781 C 22.246094 14.675781 22.375 14.675781 22.507812 14.675781 C 22.511719 14.726562 22.519531 14.773438 22.527344 14.824219 C 22.570312 15.003906 22.570312 15.003906 22.738281 15.078125 C 22.789062 15.097656 22.839844 15.121094 22.894531 15.144531 C 22.917969 15.195312 22.945312 15.246094 22.972656 15.300781 C 22.660156 15.164062 22.382812 14.96875 22.121094 14.753906 C 22.121094 14.730469 22.121094 14.703125 22.121094 14.675781 Z M 22.121094 14.675781 "/>
<path style=" stroke:none;fill-rule:nonzero;fill:rgb(89.803922%,53.333336%,30.980393%);fill-opacity:1;" d="M 18.40625 12.726562 C 18.40625 12.777344 18.40625 12.828125 18.40625 12.882812 C 18.511719 12.882812 18.613281 12.882812 18.71875 12.882812 C 18.71875 12.933594 18.71875 12.984375 18.71875 13.039062 C 18.792969 13.039062 18.871094 13.039062 18.949219 13.039062 C 18.949219 13.089844 18.949219 13.140625 18.949219 13.191406 C 18.835938 13.15625 18.722656 13.121094 18.609375 13.085938 C 18.546875 13.066406 18.484375 13.046875 18.421875 13.027344 C 18.253906 12.960938 18.253906 12.960938 18.097656 12.804688 C 18.253906 12.726562 18.253906 12.726562 18.40625 12.726562 Z M 18.40625 12.726562 "/>
<path style=" stroke:none;fill-rule:nonzero;fill:rgb(88.627452%,53.333336%,30.980393%);fill-opacity:1;" d="M 10.285156 8.351562 C 10.390625 8.351562 10.492188 8.351562 10.597656 8.351562 C 10.46875 8.632812 10.304688 8.878906 10.132812 9.132812 C 10.105469 9.054688 10.082031 8.980469 10.054688 8.898438 C 10.105469 8.847656 10.15625 8.796875 10.210938 8.742188 C 10.257812 8.542969 10.257812 8.542969 10.285156 8.351562 Z M 10.285156 8.351562 "/>
<path style=" stroke:none;fill-rule:nonzero;fill:rgb(99.607843%,95.294118%,89.019608%);fill-opacity:1;" d="M 58.9375 7.882812 C 58.960938 7.960938 58.988281 8.039062 59.011719 8.117188 C 58.839844 8.320312 58.839844 8.320312 58.625 8.507812 C 58.523438 8.484375 58.421875 8.457031 58.316406 8.429688 C 58.519531 8.25 58.726562 8.070312 58.9375 7.882812 Z M 58.9375 7.882812 "/>
<path style=" stroke:none;fill-rule:nonzero;fill:rgb(89.019608%,52.156866%,30.980393%);fill-opacity:1;" d="M 63.035156 1.015625 C 63.085938 1.015625 63.136719 1.015625 63.191406 1.015625 C 63.078125 1.3125 62.945312 1.589844 62.804688 1.875 C 62.777344 1.875 62.753906 1.875 62.726562 1.875 C 62.726562 1.71875 62.726562 1.566406 62.726562 1.40625 C 62.777344 1.40625 62.828125 1.40625 62.878906 1.40625 C 62.878906 1.355469 62.878906 1.300781 62.878906 1.25 C 62.929688 1.25 62.984375 1.25 63.035156 1.25 C 63.035156 1.171875 63.035156 1.09375 63.035156 1.015625 Z M 63.035156 1.015625 "/>
<path style=" stroke:none;fill-rule:nonzero;fill:rgb(89.411765%,50.980395%,27.450982%);fill-opacity:1;" d="M 10.828125 7.652344 C 10.957031 7.675781 11.082031 7.703125 11.214844 7.730469 C 11.085938 7.882812 10.960938 8.039062 10.828125 8.195312 C 10.757812 7.960938 10.746094 7.894531 10.828125 7.652344 Z M 10.828125 7.652344 "/>
<path style=" stroke:none;fill-rule:nonzero;fill:rgb(99.607843%,96.078432%,90.980393%);fill-opacity:1;" d="M 12.066406 7.105469 C 11.949219 7.398438 11.773438 7.542969 11.523438 7.730469 C 11.742188 7.105469 11.742188 7.105469 12.066406 7.105469 Z M 11.371094 7.730469 C 11.523438 7.808594 11.523438 7.808594 11.523438 7.808594 Z M 11.371094 7.730469 "/>
<path style=" stroke:none;fill-rule:nonzero;fill:rgb(99.607843%,94.509804%,86.666667%);fill-opacity:1;" d="M 23.898438 1.953125 C 24.21875 2 24.464844 2.109375 24.75 2.265625 C 24.75 2.316406 24.75 2.367188 24.75 2.421875 C 24.457031 2.308594 24.179688 2.175781 23.898438 2.03125 C 23.898438 2.003906 23.898438 1.976562 23.898438 1.953125 Z M 23.898438 1.953125 "/>
<path style=" stroke:none;fill-rule:nonzero;fill:rgb(99.215686%,92.54902%,83.137256%);fill-opacity:1;" d="M 12.21875 17.175781 C 12.519531 17.265625 12.761719 17.347656 12.992188 17.566406 C 12.992188 17.617188 12.992188 17.667969 12.992188 17.722656 C 12.71875 17.59375 12.46875 17.429688 12.21875 17.253906 C 12.21875 17.226562 12.21875 17.203125 12.21875 17.175781 Z M 12.21875 17.175781 "/>
<path style=" stroke:none;fill-rule:nonzero;fill:rgb(88.235295%,53.725493%,34.117648%);fill-opacity:1;" d="M 8.121094 2.1875 C 8.171875 2.210938 8.222656 2.238281 8.277344 2.265625 C 8.101562 2.527344 8.050781 2.542969 7.761719 2.628906 C 7.699219 2.648438 7.636719 2.667969 7.570312 2.6875 C 7.523438 2.703125 7.476562 2.71875 7.425781 2.730469 C 7.636719 2.503906 7.839844 2.328125 8.121094 2.1875 Z M 8.121094 2.1875 "/>
<path style=" stroke:none;fill-rule:nonzero;fill:rgb(40.784314%,40.784314%,41.176471%);fill-opacity:1;" d="M 75.253906 40.515625 C 75.304688 40.515625 75.359375 40.515625 75.410156 40.515625 C 75.535156 40.710938 75.535156 40.710938 75.640625 40.90625 C 75.539062 40.933594 75.4375 40.957031 75.332031 40.984375 C 75.332031 40.933594 75.332031 40.882812 75.332031 40.828125 C 75.257812 40.828125 75.179688 40.828125 75.101562 40.828125 C 75.152344 40.726562 75.203125 40.621094 75.253906 40.515625 Z M 75.253906 40.515625 "/>
<path style=" stroke:none;fill-rule:nonzero;fill:rgb(99.215686%,93.333334%,86.274511%);fill-opacity:1;" d="M 25.367188 29.820312 C 25.417969 29.847656 25.472656 29.875 25.523438 29.898438 C 25.394531 30.09375 25.394531 30.09375 25.214844 30.289062 C 25 30.3125 25 30.3125 24.828125 30.289062 C 24.996094 30.113281 25.171875 29.964844 25.367188 29.820312 Z M 25.367188 29.820312 "/>
<path style=" stroke:none;fill-rule:nonzero;fill:rgb(99.607843%,94.901961%,88.627452%);fill-opacity:1;" d="M 23.433594 23.730469 C 23.484375 23.757812 23.539062 23.785156 23.589844 23.808594 C 23.398438 24.082031 23.398438 24.082031 23.203125 24.355469 C 23.175781 24.253906 23.152344 24.152344 23.125 24.042969 C 23.277344 23.867188 23.277344 23.867188 23.433594 23.730469 Z M 23.433594 23.730469 "/>
<path style=" stroke:none;fill-rule:nonzero;fill:rgb(99.607843%,94.117647%,86.666667%);fill-opacity:1;" d="M 23.28125 9.367188 C 23.460938 9.394531 23.636719 9.417969 23.820312 9.445312 C 23.871094 9.574219 23.925781 9.703125 23.976562 9.835938 C 23.746094 9.707031 23.515625 9.578125 23.28125 9.445312 C 23.28125 9.421875 23.28125 9.394531 23.28125 9.367188 Z M 23.28125 9.367188 "/>
<path style=" stroke:none;fill-rule:nonzero;fill:rgb(87.450981%,52.941179%,31.764707%);fill-opacity:1;" d="M 7.269531 2.730469 C 7.320312 2.757812 7.371094 2.785156 7.425781 2.808594 C 7.246094 3.082031 7.101562 3.152344 6.804688 3.277344 C 6.753906 3.253906 6.703125 3.226562 6.652344 3.199219 C 6.855469 3.046875 7.058594 2.890625 7.269531 2.730469 Z M 7.269531 2.730469 "/>
<path style=" stroke:none;fill-rule:nonzero;fill:rgb(90.196079%,52.156866%,30.19608%);fill-opacity:1;" d="M 9.824219 1.328125 C 9.875 1.351562 9.925781 1.378906 9.976562 1.40625 C 9.953125 1.507812 9.925781 1.609375 9.898438 1.71875 C 9.722656 1.691406 9.542969 1.664062 9.359375 1.640625 C 9.511719 1.523438 9.652344 1.414062 9.824219 1.328125 Z M 9.824219 1.328125 "/>
<path style=" stroke:none;fill-rule:nonzero;fill:rgb(99.215686%,94.509804%,87.450981%);fill-opacity:1;" d="M 22.972656 1.484375 C 23.492188 1.472656 23.492188 1.472656 23.667969 1.5625 C 23.640625 1.636719 23.617188 1.714844 23.589844 1.796875 C 23.144531 1.660156 23.144531 1.660156 22.972656 1.484375 Z M 22.972656 1.484375 "/>
<path style=" stroke:none;fill-rule:nonzero;fill:rgb(40.392157%,40.392157%,40.784314%);fill-opacity:1;" d="M 12.683594 37.003906 C 12.734375 37.054688 12.785156 37.105469 12.839844 37.160156 C 12.789062 37.289062 12.738281 37.417969 12.683594 37.550781 C 12.609375 37.472656 12.53125 37.394531 12.453125 37.316406 C 12.476562 37.238281 12.503906 37.160156 12.53125 37.082031 C 12.582031 37.054688 12.632812 37.03125 12.683594 37.003906 Z M 12.683594 37.003906 "/>
<path style=" stroke:none;fill-rule:nonzero;fill:rgb(89.019608%,52.549022%,30.19608%);fill-opacity:1;" d="M 7.964844 21.78125 C 8.035156 21.820312 8.035156 21.820312 8.105469 21.863281 C 8.285156 21.960938 8.285156 21.960938 8.507812 21.859375 C 8.507812 21.988281 8.507812 22.117188 8.507812 22.25 C 8.054688 21.957031 8.054688 21.957031 7.964844 21.78125 Z M 7.964844 21.78125 "/>
<path style=" stroke:none;fill-rule:nonzero;fill:rgb(99.607843%,92.941177%,83.529413%);fill-opacity:1;" d="M 25.445312 9.992188 C 25.472656 9.992188 25.496094 9.992188 25.523438 9.992188 C 25.496094 10.25 25.472656 10.507812 25.445312 10.773438 C 25.34375 10.722656 25.242188 10.671875 25.136719 10.617188 C 25.214844 10.589844 25.289062 10.566406 25.367188 10.539062 C 25.394531 10.359375 25.417969 10.179688 25.445312 9.992188 Z M 25.445312 9.992188 "/>
<path style=" stroke:none;fill-rule:nonzero;fill:rgb(99.607843%,94.509804%,87.058824%);fill-opacity:1;" d="M 17.402344 8.429688 C 16.957031 8.742188 16.957031 8.742188 16.785156 8.742188 C 16.785156 8.667969 16.785156 8.589844 16.785156 8.507812 C 17.019531 8.363281 17.140625 8.335938 17.402344 8.429688 Z M 17.402344 8.429688 "/>
<path style=" stroke:none;fill-rule:nonzero;fill:rgb(90.588236%,51.764709%,30.588236%);fill-opacity:1;" d="M 24.828125 2.578125 C 25.089844 2.667969 25.265625 2.753906 25.445312 2.964844 C 25.292969 2.964844 25.140625 2.964844 24.980469 2.964844 C 24.929688 2.835938 24.878906 2.707031 24.828125 2.578125 Z M 24.828125 2.578125 "/>
</g>
</svg>
