<?xml version="1.0" standalone="no"?>
<!DOCTYPE svg PUBLIC "-//W3C//DTD SVG 20010904//EN"
 "http://www.w3.org/TR/2001/REC-SVG-20010904/DTD/svg10.dtd">
<svg version="1.0" xmlns="http://www.w3.org/2000/svg"
 width="1280.000000pt" height="538.000000pt" viewBox="0 0 1280.000000 538.000000"
 preserveAspectRatio="xMidYMid meet">

<g transform="translate(0.000000,538.000000) scale(0.100000,-0.100000)"
fill="#000000" stroke="none">
<path d="M8830 4001 c-99 -22 -182 -52 -260 -94 -369 -200 -650 -592 -751
-1049 -30 -134 -37 -357 -14 -468 51 -253 208 -478 396 -568 46 -22 108 -45
137 -51 76 -16 202 -14 285 5 74 17 214 76 267 114 l30 21 0 -61 c0 -92 -36
-255 -75 -337 -75 -160 -204 -233 -411 -234 -192 0 -434 82 -626 212 -33 23
-64 37 -68 33 -8 -9 -168 -393 -177 -425 -8 -29 189 -93 399 -128 195 -33 453
-46 618 -32 528 44 768 224 920 691 42 128 85 313 95 405 32 312 37 346 126
835 94 523 131 682 203 885 20 55 36 101 36 102 0 4 -149 103 -156 103 -3 0
-55 -34 -115 -76 l-110 -75 -52 46 c-60 53 -184 117 -272 141 -95 26 -320 28
-425 5z m255 -330 c22 -10 61 -41 87 -67 l47 -49 -109 -600 c-60 -330 -112
-611 -115 -624 -9 -37 -100 -117 -173 -152 -56 -27 -78 -32 -137 -32 -117 0
-192 47 -236 147 -20 44 -23 68 -24 181 0 180 35 452 82 640 77 304 230 512
412 561 66 18 120 16 166 -5z"/>
<path d="M10855 4010 c-134 -15 -257 -31 -315 -41 l-56 -11 -38 -211 c-20
-117 -40 -224 -43 -239 l-5 -28 127 61 c204 97 413 159 528 159 53 -1 153 -20
197 -38 49 -20 109 -72 136 -118 23 -40 29 -62 32 -135 4 -86 4 -88 -19 -93
-13 -2 -64 -12 -114 -21 -614 -111 -1116 -456 -1256 -863 -31 -91 -43 -209
-30 -287 32 -181 167 -323 356 -376 74 -21 339 -18 430 5 68 16 248 96 303
134 15 10 43 28 62 40 l35 21 -3 -90 -4 -89 341 0 341 0 -7 28 c-13 49 -6 274
11 387 9 61 33 196 52 300 19 105 39 213 44 240 5 28 34 187 65 354 30 168 55
332 55 365 0 130 -45 233 -144 331 -101 100 -218 155 -416 197 -76 15 -145 20
-340 23 -135 2 -281 0 -325 -5z m525 -983 c0 -36 -144 -775 -152 -783 -25 -24
-164 -93 -222 -109 -86 -25 -204 -17 -272 18 -133 68 -167 197 -92 349 39 78
181 223 286 292 93 61 452 246 452 233z"/>
<path d="M12436 4000 c-63 -25 -119 -79 -147 -144 -17 -41 -20 -63 -17 -121 5
-78 23 -119 72 -168 48 -48 101 -70 179 -75 58 -4 75 0 122 22 69 34 121 95
141 164 62 211 -146 402 -350 322z m205 -48 c74 -38 119 -111 119 -193 0 -209
-231 -313 -382 -171 -196 184 24 489 263 364z"/>
<path d="M12410 3750 c0 -153 1 -160 20 -160 18 0 20 7 20 75 l0 75 36 0 c51
0 66 -11 114 -85 33 -50 48 -65 66 -65 l25 0 -23 40 c-13 23 -37 56 -54 75
l-31 34 29 12 c42 17 62 61 48 105 -6 19 -20 39 -30 44 -10 6 -64 10 -119 10
l-101 0 0 -160z m200 110 c26 -26 25 -36 -5 -65 -21 -22 -33 -25 -90 -25 l-65
0 0 55 0 55 70 0 c57 0 74 -4 90 -20z"/>
<path d="M5682 3995 c-124 -28 -228 -75 -297 -137 l-35 -30 0 66 0 66 -323 0
-322 0 -23 -192 c-40 -332 -43 -354 -114 -748 -178 -997 -264 -1449 -328
-1726 -39 -166 -70 -307 -70 -313 0 -8 99 -11 348 -11 l348 0 22 192 c12 106
43 308 69 449 l46 256 66 -34 c143 -72 333 -93 479 -53 384 107 789 590 906
1084 37 153 41 187 41 356 -1 152 -4 186 -23 255 -71 246 -213 424 -397 497
-72 28 -92 32 -205 34 -83 2 -146 -1 -188 -11z m20 -386 c113 -58 174 -260
150 -497 -13 -128 -47 -298 -86 -433 -85 -293 -185 -449 -336 -530 -39 -21
-59 -24 -145 -24 -76 0 -108 4 -132 17 -40 22 -76 73 -76 107 0 14 49 293 109
620 l108 594 49 53 c99 109 251 148 359 93z"/>
<path d="M6971 3803 c-19 -234 -208 -1267 -307 -1671 -41 -169 -77 -315 -80
-324 -5 -17 16 -18 355 -18 311 0 361 2 361 15 0 101 117 793 333 1973 l34
182 -342 0 -342 0 -12 -157z"/>
<path d="M9425 858 c-74 -43 -51 -118 37 -118 49 0 83 17 97 47 15 33 14 40
-9 63 -23 23 -92 27 -125 8z"/>
<path d="M10383 860 c-26 -11 -43 -40 -43 -75 0 -19 7 -28 28 -36 41 -16 113
-5 134 21 24 30 23 76 -1 90 -23 12 -87 12 -118 0z"/>
<path d="M3372 453 c-45 -225 -82 -414 -82 -420 0 -9 18 -13 59 -13 l59 0 9
58 9 57 18 -38 c10 -21 35 -50 54 -65 30 -23 45 -27 101 -27 82 1 137 27 204
97 117 124 173 373 111 493 -59 113 -226 114 -343 2 -40 -38 -43 -40 -38 -17
2 14 14 72 26 130 11 58 23 115 26 128 5 21 3 22 -63 22 l-68 0 -82 -407z
m391 77 c76 -60 31 -300 -72 -379 -29 -22 -45 -26 -97 -26 -55 0 -67 4 -89 26
-48 47 -53 163 -12 261 20 46 75 108 112 124 47 21 128 18 158 -6z"/>
<path d="M4185 848 c-2 -7 -38 -186 -80 -398 -42 -212 -79 -395 -82 -407 -5
-22 -3 -23 65 -23 l71 0 10 53 c6 28 44 217 85 420 l73 367 -69 0 c-46 0 -70
-4 -73 -12z"/>
<path d="M6656 848 c-10 -32 -46 -226 -46 -246 0 -30 -12 -27 -32 8 -31 54
-73 72 -158 67 -88 -4 -124 -21 -187 -83 -116 -117 -171 -365 -107 -492 36
-73 79 -97 169 -96 82 0 116 15 186 81 l48 44 -15 -53 c-7 -29 -14 -54 -14
-55 0 -2 28 -3 63 -3 l63 0 82 413 c45 226 82 415 82 420 0 13 -130 8 -134 -5z
m-130 -316 c34 -27 47 -62 47 -123 -1 -115 -56 -228 -131 -272 -39 -23 -119
-27 -155 -8 -65 35 -75 170 -22 290 42 93 95 130 185 130 37 0 62 -5 76 -17z"/>
<path d="M9057 850 c-112 -28 -185 -117 -202 -247 l-7 -53 -48 0 c-53 0 -53 0
-66 -72 l-6 -38 46 0 c35 0 46 -4 46 -16 0 -15 -67 -353 -76 -386 -5 -16 3
-18 63 -18 l69 0 33 163 c18 89 37 183 43 210 l10 47 113 0 113 0 11 44 c6 25
11 50 11 55 0 7 -42 11 -120 11 -66 0 -120 3 -120 7 0 18 33 120 43 133 40 53
142 68 204 31 l32 -20 10 50 c15 68 16 65 -28 82 -52 21 -127 28 -174 17z"/>
<path d="M964 425 l-81 -405 64 0 c34 0 63 2 63 4 0 2 27 138 59 302 33 165
62 313 64 329 2 17 5 -4 6 -45 1 -41 17 -190 35 -330 l32 -255 70 -3 69 -3 39
73 c176 330 243 463 271 536 16 39 30 71 31 69 2 -2 -3 -30 -11 -62 -13 -58
-125 -604 -125 -611 0 -2 28 -4 63 -4 l62 0 81 405 81 405 -101 0 -102 0 -146
-297 c-81 -164 -156 -323 -167 -353 l-20 -55 0 87 c1 47 -12 206 -27 352 l-28
266 -100 0 -101 0 -81 -405z"/>
<path d="M2863 659 c-145 -56 -242 -227 -243 -425 0 -139 68 -216 205 -230
115 -12 277 54 290 118 3 15 8 42 11 60 l7 32 -37 -32 c-64 -56 -113 -76 -191
-76 -53 -1 -78 4 -102 19 -38 23 -66 85 -61 136 l3 34 217 3 217 2 10 38 c29
117 20 218 -27 274 -14 17 -44 39 -67 49 -55 25 -163 24 -232 -2z m172 -103
c42 -18 63 -50 71 -109 l7 -47 -172 0 c-112 0 -171 4 -171 10 0 19 38 85 62
107 53 50 138 66 203 39z"/>
<path d="M4622 662 c-140 -50 -235 -200 -249 -393 -11 -145 46 -235 163 -259
105 -22 240 10 305 73 23 22 48 101 36 114 -3 2 -17 -7 -33 -20 -105 -88 -256
-100 -318 -26 -22 25 -26 41 -26 90 l0 59 217 2 218 3 13 55 c17 72 10 179
-14 221 -10 17 -36 46 -57 62 -33 28 -45 31 -120 34 -62 3 -95 -1 -135 -15z
m189 -118 c27 -24 49 -74 49 -114 l0 -30 -171 0 -170 0 7 23 c20 66 61 111
121 133 51 19 136 13 164 -12z"/>
<path d="M5267 665 c-61 -23 -114 -71 -143 -131 -22 -45 -26 -64 -22 -111 4
-49 9 -61 37 -84 30 -25 48 -32 156 -59 60 -14 78 -31 77 -70 -1 -51 -47 -92
-111 -98 -73 -7 -113 4 -158 43 l-40 34 -10 -57 c-9 -49 -8 -60 6 -76 34 -38
73 -50 161 -50 101 1 155 21 212 80 47 50 68 100 68 164 0 70 -31 101 -131
130 -140 41 -157 55 -136 113 28 82 170 96 260 26 26 -21 38 -26 41 -17 6 19
26 106 26 112 0 3 -19 18 -42 33 -37 23 -56 27 -128 30 -57 2 -98 -2 -123 -12z"/>
<path d="M7110 671 c-90 -28 -185 -114 -224 -204 -51 -115 -62 -277 -25 -355
58 -118 253 -147 400 -59 56 34 73 58 82 119 l6 37 -51 -39 c-60 -48 -143 -75
-205 -66 -92 12 -127 51 -128 139 l0 52 217 3 216 2 12 52 c28 115 9 230 -47
280 -47 43 -176 62 -253 39z m143 -114 c18 -8 38 -21 45 -29 14 -17 31 -97 24
-116 -5 -16 -332 -18 -332 -2 0 46 70 129 125 148 43 15 100 14 138 -1z"/>
<path d="M8223 661 c-136 -47 -217 -179 -230 -376 -9 -130 24 -209 107 -254
37 -21 58 -25 126 -25 72 0 89 4 147 32 78 38 134 100 176 194 50 109 67 253
41 332 -14 44 -67 92 -117 105 -60 17 -191 13 -250 -8z m216 -137 c29 -24 31
-30 31 -97 0 -116 -35 -204 -105 -266 -78 -68 -182 -61 -232 16 -36 55 -14
223 39 304 34 50 80 69 165 69 62 0 75 -3 102 -26z"/>
<path d="M9832 659 c-136 -53 -232 -226 -232 -419 0 -102 31 -168 98 -208 40
-23 58 -27 122 -27 81 0 121 12 187 57 36 25 43 35 53 84 7 30 10 58 7 60 -2
3 -19 -10 -38 -27 -45 -42 -93 -61 -154 -62 -106 -1 -152 56 -142 177 13 164
94 256 224 256 67 0 113 -23 142 -71 l19 -31 12 58 c6 33 13 66 16 75 5 20
-41 64 -88 83 -53 23 -161 20 -226 -5z"/>
<path d="M10890 659 c-25 -11 -66 -43 -92 -71 -53 -55 -55 -54 -33 18 8 27 15
52 15 57 0 4 -29 7 -64 7 l-63 0 -65 -325 -65 -325 67 0 67 0 40 201 c56 274
90 328 212 337 54 4 62 2 85 -21 35 -35 34 -55 -14 -292 -22 -109 -40 -205
-40 -212 0 -9 18 -13 65 -13 36 0 65 1 65 3 0 2 20 103 45 226 49 245 54 299
27 351 -39 78 -151 105 -252 59z"/>
<path d="M11525 662 c-75 -26 -145 -70 -156 -98 -5 -14 -12 -43 -15 -65 l-7
-40 59 41 c92 64 188 85 258 56 38 -16 51 -42 41 -87 -9 -42 -44 -60 -186 -99
-193 -53 -254 -106 -254 -227 0 -55 3 -65 30 -92 72 -76 209 -61 315 35 l38
35 -13 -51 -13 -50 58 0 c52 0 58 2 63 22 42 176 88 452 85 500 -7 97 -64 138
-193 138 -33 -1 -83 -8 -110 -18z m149 -364 c-24 -79 -33 -100 -60 -135 -36
-47 -75 -65 -136 -61 -41 2 -55 8 -69 28 -16 21 -17 31 -9 62 14 48 44 68 160
107 52 17 102 36 110 41 8 5 16 10 17 10 1 0 -5 -23 -13 -52z"/>
<path d="M1986 653 c-3 -10 -24 -112 -47 -228 -50 -255 -51 -326 -4 -375 36
-37 94 -54 159 -45 68 9 116 35 170 96 43 48 47 50 40 23 -4 -16 -11 -39 -15
-52 -18 -47 -13 -52 54 -52 l62 0 63 318 c35 174 63 320 62 325 0 7 -130 11
-130 4 0 -2 -18 -90 -39 -195 -42 -207 -64 -265 -116 -311 -56 -49 -158 -53
-190 -8 -23 33 -19 86 25 302 22 109 40 202 40 207 0 4 -29 8 -64 8 -53 0 -66
-3 -70 -17z"/>
<path d="M10271 350 c-34 -173 -62 -318 -61 -322 0 -7 130 -12 130 -5 0 6 119
593 125 617 6 25 6 25 -63 25 l-68 0 -63 -315z"/>
<path d="M9376 643 c-5 -16 -126 -611 -126 -620 0 -1 30 -3 68 -3 l67 0 59
298 c32 163 60 307 63 320 5 21 2 22 -60 22 -54 0 -67 -3 -71 -17z"/>
</g>
</svg>
